<?xml version="1.0" encoding="UTF-8" standalone="no"?>
<svg
   width="312.82"
   height="127.77"
   version="1.1"
   viewBox="0 0 312.82 127.77"
   id="svg9"
   sodipodi:docname="silver_logo.svg"
   inkscape:version="1.4.2 (ebf0e940d0, 2025-05-08)"
   xmlns:inkscape="http://www.inkscape.org/namespaces/inkscape"
   xmlns:sodipodi="http://sodipodi.sourceforge.net/DTD/sodipodi-0.dtd"
   xmlns="http://www.w3.org/2000/svg"
   xmlns:svg="http://www.w3.org/2000/svg">
  <sodipodi:namedview
     id="namedview9"
     pagecolor="#505050"
     bordercolor="#ffffff"
     borderopacity="1"
     inkscape:showpageshadow="0"
     inkscape:pageopacity="0"
     inkscape:pagecheckerboard="1"
     inkscape:deskcolor="#505050"
     inkscape:zoom="2.8722587"
     inkscape:cx="134.56309"
     inkscape:cy="85.298723"
     inkscape:window-width="1920"
     inkscape:window-height="963"
     inkscape:window-x="3840"
     inkscape:window-y="44"
     inkscape:window-maximized="1"
     inkscape:current-layer="svg9" />
  <defs
     id="defs2">
    <rect
       x="102.35847"
       y="22.630273"
       width="207.15404"
       height="121.159"
       id="rect11" />
    <rect
       x="104.79557"
       y="40.734492"
       width="193.22772"
       height="56.749762"
       id="rect10" />
    <rect
       x="107.23268"
       y="36.904753"
       width="190.09429"
       height="58.83871"
       id="rect9" />
    <filter
       id="filter51184"
       x="-0.078834664"
       y="-0.074459956"
       width="1.1892032"
       height="1.1824269"
       color-interpolation-filters="sRGB">
      <feFlood
         flood-color="rgb(0,0,0)"
         flood-opacity=".49804"
         result="flood"
         id="feFlood1" />
      <feComposite
         in="flood"
         in2="SourceGraphic"
         operator="in"
         result="composite1"
         id="feComposite1" />
      <feGaussianBlur
         in="composite1"
         result="blur"
         stdDeviation="2.5"
         id="feGaussianBlur1" />
      <feOffset
         dx="2.4"
         dy="2.7"
         result="offset"
         id="feOffset1" />
      <feComposite
         in="SourceGraphic"
         in2="offset"
         result="composite2"
         id="feComposite2" />
    </filter>
  </defs>
  <filter
     id="d"
     x="-.050914"
     y="-.027844"
     width="1.1018"
     height="1.0557">
    <feGaussianBlur
       stdDeviation="2.97"
       id="feGaussianBlur2" />
  </filter>
  <filter
     id="e"
     x="-.0272"
     y="-.204"
     width="1.0544"
     height="1.408">
    <feGaussianBlur
       stdDeviation="1.7000001"
       id="feGaussianBlur3" />
  </filter>
  <g
     id="g11"
     inkscape:label="i"
     transform="matrix(1.3464793,0,0,0.96193002,-28.180651,5.1631614)">
    <path
       fill="#a00c02"
       d="m 104.13701,45.891568 c 0.33963,0.03345 0.7971,0.281173 1.07779,0.474829 1.52926,1.055139 2.01563,2.551263 2.11447,4.340115 0.0407,0.713157 0.0116,1.40422 0.14318,2.109969 0.2127,1.141561 0.71575,1.747008 1.64635,2.376172 -1.04831,-2.61489 -0.79022,-5.771352 1.58236,-7.592956 1.13396,-0.878146 2.57493,-1.259899 3.99493,-1.058353 1.49831,0.208763 2.87943,1.138964 3.77555,2.339593 0.93305,1.272543 1.31733,2.865946 1.06673,4.42394 -0.20248,1.262192 -0.8055,2.425793 -1.72009,3.318934 -0.33032,0.318233 -0.76496,0.640604 -1.1336,0.912075 0.39802,0.128013 0.9546,0.437635 1.26002,0.733853 0.84997,0.823831 0.31214,2.02648 0.17565,3.014098 -0.0962,0.696069 -0.18796,1.477108 -0.17706,2.179163 0.20307,-0.567665 0.32754,-0.873617 0.66986,-1.384532 0.62736,-0.936492 1.64488,-1.555421 2.01099,-2.63419 0.26907,-0.792734 0.14322,-1.42324 0.0745,-2.225366 -0.0758,-0.881982 -0.0557,-1.903832 0.29284,-2.725035 0.3608,-0.849175 0.98227,-1.563285 1.84456,-1.915751 -1.31959,2.711502 0.84494,4.914716 0.96997,7.540348 0.0911,1.229663 -0.37926,2.275321 -0.91123,3.34953 -0.34011,0.686533 -0.77587,1.771066 -0.24669,2.47323 1.24041,0.452011 1.93069,-1.684778 1.96035,-2.557134 0.061,-1.800744 0.12334,-3.322434 1.94022,-4.217137 -1.24491,2.891341 0.68357,4.2354 0.63854,7.025125 -0.0421,2.594532 -1.83757,3.70955 -3.45112,5.285249 -1.29554,1.36154 -3.03465,2.992421 -3.11745,4.99278 -0.0335,0.808025 0.47129,1.691574 1.35399,1.62389 2.18048,-0.18376 2.17684,-2.816217 2.61875,-4.368508 0.57338,-2.012938 2.23447,-3.210438 4.25468,-3.291689 -0.11552,0.11288 -0.2288,0.227697 -0.34039,0.344442 -0.49029,0.525117 -0.86844,1.144636 -1.11149,1.820932 -0.85781,2.358636 0.26739,3.787303 0.33144,6.069867 0.0752,1.9047 -0.87738,3.525234 -2.34689,4.685674 -1.07123,0.845789 -2.59864,1.759822 -2.56421,3.31686 0.006,0.278294 0.19493,0.746223 0.54175,0.69112 0.46961,-0.09034 0.78873,-0.539246 1.07569,-0.877952 0.83068,-0.980036 1.8496,-1.474256 3.11745,-1.565153 -1.98106,1.576619 -1.71452,3.515725 -2.86935,5.538738 -0.91349,1.600108 -2.64394,2.985976 -4.43061,3.466492 -1.33441,0.43073 -2.72503,0.451703 -4.03315,0.907599 -0.67908,0.236902 -1.42894,0.744826 -2.0314,1.156803 -1.56627,1.07123 -3.14721,1.665287 -5.07498,1.63424 -2.42159,-0.03886 -4.34207,-1.110931 -5.99076,-2.799715 0.22858,0.08307 0.51139,0.110762 0.75382,0.141808 0.91708,0.116627 1.8423,0.06177 2.73524,-0.223467 0.76023,-0.264036 1.72738,-0.625391 2.1692,-1.344483 0.17583,-0.313817 -0.0867,-0.500926 -0.36702,-0.531412 -1.16411,-0.126422 -2.3086,0.384576 -3.44072,0.584272 -1.52089,0.268224 -2.96988,0.134534 -4.36012,-0.557423 -1.796924,-0.894453 -2.713531,-2.364239 -3.306306,-4.215797 0.505366,0.368075 1.110845,0.731954 1.765797,0.709581 0.496248,0.01844 1.066369,-0.408351 0.934489,-0.966897 -0.268936,-1.139465 -1.761951,-1.683742 -2.475107,-2.578476 -1.007176,-1.263647 -1.273385,-2.613715 -1.090741,-4.188943 0.09806,-0.845788 0.256307,-1.608505 0.144875,-2.453454 -0.137745,-1.222253 -0.879656,-2.384092 -1.842075,-3.137302 0.225544,0.0288 0.471752,0.05818 0.692992,0.105161 1.609371,0.328639 2.970522,1.394823 3.674789,2.878584 0.210292,0.453661 0.290088,0.96046 0.561553,1.380004 0.111091,0.171729 0.410464,0.561336 0.626314,0.314651 0.265,-0.302628 0.33345,-0.825372 0.35051,-1.208551 0.0608,-1.360141 -0.727321,-2.4831 -1.603736,-3.442164 -0.327777,-0.363879 -0.693193,-0.764674 -0.961166,-1.173866 -0.381217,-0.575887 -0.625392,-1.231482 -0.713833,-1.916447 -0.234548,-1.722897 0.473517,-3.018571 0.595519,-4.668947 0.114649,-1.550723 -0.593702,-2.890614 -1.630265,-4.014695 2.396817,0.5494 4.039511,2.400006 4.406311,4.820124 0.11018,0.726861 0.11996,1.473415 0.53205,2.115444 0.38469,0.599382 0.99914,0.993467 1.56671,1.401259 1.45469,1.023671 2.45985,2.421851 2.69608,4.21495 0.21707,1.647943 -0.22242,3.127512 -0.67826,4.686794 -0.16217,0.586513 -0.33791,1.45915 -0.14688,2.058532 0.45944,1.441253 1.36988,0.764396 1.46952,-0.365837 0.0718,-0.81502 0.1655,-1.628363 0.24795,-2.40451 l 0.60469,-5.826256 0.52001,-4.838806 c 0.14482,-1.393733 0.4207,-3.016809 0.10848,-4.392555 -0.24417,-0.955375 -1.11212,-1.389931 -1.8108,-1.998318 -0.89974,-0.68516 -1.43096,-2.362606 -0.99364,-3.406446 0.22395,-0.534548 3.13803,-0.78395 3.77136,-0.937188 -0.71323,-0.416858 -1.37815,-0.672466 -2.12357,-1.011589 -1.2744,-0.579774 -2.44312,-1.520017 -2.99086,-2.840884 -0.56825,-1.370269 -0.46138,-3.005288 0.16974,-4.337293 0.26495,-0.547468 0.64153,-1.032651 0.87707,-1.633706 0.39816,-1.01584 0.36347,-1.875946 -0.0335,-2.884014 -0.11945,-0.303268 -0.26587,-0.555747 -0.38849,-0.843631 z m 12.62403,25.052568 c 0.0867,-0.06797 0.18265,-0.138589 0.25956,-0.216089 0.57365,-0.592275 0.70649,-1.24642 0.71489,-2.046392 0.005,-0.387907 -0.28975,-1.913763 -0.4987,-2.115001 -0.1348,1.351637 -0.69866,3.108101 -0.47575,4.377482 z"
       id="path1"
       style="display:block;fill:#666666;fill-opacity:1;stroke-width:0.0279691" />
    <path
       fill="#fe6700"
       d="m 121.9068,57.665524 0.0243,0.04687 c 0.54707,1.060754 0.82872,2.571288 0.44023,3.72096 -0.48722,1.441699 -1.45271,2.426351 -1.41831,4.046913 0.0349,1.644924 1.33299,2.648262 2.86489,1.845323 0.89975,-0.471699 1.50753,-1.440438 1.79504,-2.402076 0.0608,-0.210017 0.11748,-0.421159 0.17061,-0.633303 0.14881,1.562214 0.17873,2.753115 -0.89922,4.031502 -0.61389,0.727866 -1.33466,1.276989 -2.03165,1.91639 -1.91561,1.791342 -4.29943,4.207598 -4.10196,7.039475 0.11299,1.62165 1.47789,3.005568 3.16302,2.782932 1.86052,-0.245851 2.99047,-1.862466 3.52636,-3.541455 0.0802,-0.25424 0.1365,-0.524141 0.2176,-0.771667 l 0.006,0.04672 c 0.0686,0.429884 0.22097,0.97892 0.31832,1.411043 0.28609,1.27036 0.31547,2.71245 -0.50039,3.80884 -1.07624,1.446286 -2.60085,1.807926 -3.53362,3.509574 -0.89306,1.630043 -0.50205,3.524669 -1.57383,5.072764 1.26114,0.556866 2.6719,-0.337869 3.58341,-1.170505 -0.64803,1.752263 -1.65521,2.730626 -3.31826,3.555718 -1.5741,0.781184 -3.18066,0.632663 -4.77433,1.168273 -0.66847,0.229352 -1.30421,0.545114 -1.89129,0.938647 -0.41421,0.278575 -0.81109,0.595744 -1.23539,0.858368 -1.627,1.007454 -3.58199,1.352034 -5.43108,0.786499 1.42894,-0.366116 2.86891,-1.056397 3.71055,-2.319479 0.17784,-0.288084 0.25354,-0.710418 0.15664,-1.032348 -0.44735,-1.487405 -3.29292,-1.604874 -4.46542,-1.188131 -2.21413,0.787333 -4.56877,1.169109 -6.48409,-0.575886 0.30183,-0.163902 0.58939,-0.314652 0.81032,-0.580082 1.0044,-1.207147 0.49119,-3.029897 -0.68392,-3.921833 -0.505256,-0.383461 -1.041751,-0.666784 -1.503596,-1.095553 -1.01039,-0.954868 -1.100703,-2.38605 -0.996038,-3.689693 0.03583,-0.487504 0.116155,-1.081007 0.122307,-1.559283 0.136575,0.415904 0.255165,0.902848 0.406305,1.324898 0.673522,1.881211 2.434862,2.220756 3.347062,0.260954 0.53462,-1.148411 0.43876,-2.589103 0.0382,-3.776955 -0.90534,-2.531206 -2.91119,-2.627705 -2.957367,-5.635787 -0.0085,-0.948603 0.160988,-1.890435 0.498415,-2.777113 -0.02547,1.389506 0.111535,2.631956 1.130472,3.693665 0.49119,0.511832 1.15279,0.859208 1.74794,1.251059 1.36033,0.895852 2.12696,2.21236 2.1211,3.853033 -0.005,1.225045 -0.4391,1.91952 -0.8467,2.983193 -0.41905,1.068141 -0.49926,2.239206 -0.22977,3.354338 0.32248,1.380557 1.52909,3.164993 3.16449,2.714406 1.21815,-0.482467 1.66855,-2.340454 1.76443,-3.498937 0.1567,-1.892117 0.32385,-3.767728 0.52337,-5.656484 0.21477,-2.075877 0.4521,-4.149226 0.71187,-6.219784 0.22456,-1.891108 0.53442,-3.917726 0.40013,-5.820694 -0.0852,-1.207234 -0.8754,-2.283204 -1.86328,-2.920962 -0.32254,-0.208224 -1.7354,-0.843548 -1.27058,-1.355745 0.13504,-0.142646 0.51778,-0.214326 0.71983,-0.241765 1.42986,-0.194134 2.79988,-0.680464 4.17259,-1.107131 0.64917,-0.202974 1.27847,-0.455729 1.9475,-0.6019 0.60106,-0.128435 1.24798,-0.238605 1.86498,-0.202411 0.59015,0.03462 0.90116,0.172512 0.85389,0.793149 -0.19997,1.036902 -0.34766,2.16954 -0.49896,3.218522 l -0.79295,5.540442 c -0.54035,3.442754 -0.98617,6.89974 -1.33745,10.366802 -0.10686,1.048563 -0.18768,2.099641 -0.24195,3.152122 -0.0649,1.20687 -0.19633,2.79552 0.51604,3.839329 0.28361,0.42373 0.72831,0.712656 1.23092,0.799357 0.37172,0.06404 0.66062,0.0095 1.01556,-0.09062 -0.60329,1.743041 -1.70249,2.15307 -3.42287,2.012944 -0.55155,-0.04502 -1.04828,-0.02465 -1.53783,0.266264 0.39865,0.07525 0.75106,0.135929 1.13227,0.285006 0.43773,0.170893 0.83041,0.381779 1.28379,0.512955 0.23607,0.05482 0.59017,0.07438 0.83124,0.06909 0.94621,-0.01204 1.84682,-0.407789 2.49542,-1.096951 1.33692,-1.416361 1.28937,-3.06542 1.22868,-4.838668 -0.0124,-0.08446 -0.0223,-0.169207 -0.0304,-0.253957 -0.27746,0.594342 -0.55128,1.146735 -1.19262,1.405171 -0.43547,0.175366 -1.02423,0.11495 -1.18029,-0.393245 -0.19103,-0.604974 0.1057,-1.540825 0.40973,-2.059933 0.73196,-1.250497 1.07934,-2.84558 0.54122,-4.241239 -0.61112,-1.584736 -0.93669,-3.067384 -0.11832,-4.67589 0.29734,-0.587632 0.73671,-1.117924 1.1775,-1.60263 1.08913,-1.197921 1.77242,-2.755916 1.2259,-4.369147 -0.39046,-1.152975 -0.56527,-1.812152 -0.34347,-3.024335 0.4173,-2.279181 2.66296,-3.167086 3.16947,-5.357379 0.1365,-0.584699 0.12532,-1.373174 0.12615,-1.98254 z"
       id="path2-7"
       style="display:block;fill:#cccccc;fill-opacity:1;stroke-width:0.0279691" />
    <path
       fill="#fe6700"
       d="m 110.59572,52.922092 c -0.14775,-0.539804 -0.20689,-1.130684 -0.12762,-1.686513 0.13141,-0.910006 0.61736,-1.73112 1.35191,-2.284271 0.80803,-0.598873 1.698,-0.745658 2.67944,-0.598007 0.95095,0.141605 1.88038,0.725267 2.44676,1.493467 1.19988,1.627472 1.0094,4.222395 -0.68023,5.43374 -0.76385,0.548781 -1.71421,0.771555 -2.64224,0.619263 -1.47062,-0.246741 -2.70935,-1.543757 -3.02802,-2.977679 z"
       id="path9"
       style="display:block;fill:#cccccc;fill-opacity:1;stroke-width:0.0279691" />
    <path
       fill="#fe6700"
       d="m 105.99855,49.816117 c 0.085,0.257064 0.10792,0.857698 0.12872,1.150481 0.0828,1.163438 0.0164,2.636177 0.49766,3.701831 0.78309,1.733754 2.28404,1.720356 2.91985,3.69101 -0.30185,-0.151426 -0.53484,-0.312781 -0.81091,-0.502104 -0.34115,-0.243165 -0.73814,-0.511334 -1.10467,-0.707788 -1.08186,-0.579801 -2.09411,-0.932101 -2.64576,-2.13164 -0.44838,-0.97825 -0.36188,-2.144789 0.0526,-3.118763 0.17826,-0.418778 0.40674,-0.816555 0.60276,-1.226419 0.13776,-0.287915 0.25002,-0.558262 0.35968,-0.856608 z"
       id="path11"
       style="display:block;fill:#cccccc;fill-opacity:1;stroke-width:0.0279691" />
    <path
       fill="#a00c02"
       d="m 98.833489,54.319068 c 2.960691,0.417805 4.548081,2.960061 4.600621,5.787912 0.0211,1.13532 -0.0107,2.10023 0.33815,3.200621 0.47348,1.493332 1.60667,2.486319 2.10741,3.950479 0.50657,1.54893 0.26382,2.668283 -0.40972,4.06571 l -0.0194,0.02602 c -0.10569,-0.03442 -0.12518,-0.309055 -0.14283,-0.431897 -0.12407,-0.863105 -0.41644,-1.615443 -0.96531,-2.298842 -0.5006,-0.657331 -1.26573,-0.941137 -1.96915,-1.317547 -2.469766,-1.321513 -3.279702,-3.696374 -2.785738,-6.357136 0.126385,-0.680796 0.286463,-1.387719 0.396973,-2.076517 0.284185,-1.771429 -0.08413,-3.121272 -1.150904,-4.548791 z"
       id="path12"
       style="display:block;fill:#666666;fill-opacity:1;stroke-width:0.0279691" />
    <path
       fill="#fe6700"
       d="m 101.54212,57.560639 c 0.12404,0.204872 0.2246,0.726274 0.28918,0.974192 0.50957,1.956387 -0.0781,3.960545 0.72261,5.876603 0.29085,0.695904 0.58583,1.195097 1.07655,1.760013 l -0.48632,-0.255948 C 102.63774,65.5999 102.25401,65.3823 101.84966,64.921 c -0.87866,-0.961409 -1.13467,-2.613573 -0.85246,-3.867376 0.27665,-1.229021 0.44748,-2.218069 0.54492,-3.492985 z"
       id="path13"
       style="display:block;fill:#cccccc;fill-opacity:1;stroke-width:0.0279691" />
  </g>
  <g
     id="g12"
     inkscape:label="l"
     transform="matrix(1.0641367,0,0,1,1.8147202,62.407877)">
    <path
       fill="#bd1e00"
       d="m 142.71702,-48.551955 c 1.86007,0.211745 3.53302,1.483352 4.52473,3.261665 1.23975,2.22308 0.9944,4.903842 1.7763,7.297134 0.14575,0.446169 0.29598,1.012257 0.5289,1.401578 -0.0666,-3.992692 0.42085,-7.730671 3.72555,-9.931666 2.28341,-1.520747 7.12459,-1.875776 8.905,0.761661 0.62697,1.30482 -1.35653,3.148497 -1.89165,4.09305 -2.13223,3.76273 -0.71926,6.870944 1.05623,10.461821 2.27887,4.608845 1.18969,9.071332 0.28136,14.032954 -0.16684,0.897206 -0.32379,1.796706 -0.47126,2.698306 -0.0981,0.587987 -0.20227,1.353431 -0.35635,1.913293 1.3553,-2.638133 3.26631,-4.955675 4.26611,-7.729496 0.91617,-2.5433 0.44037,-5.033395 0.19278,-7.625678 -0.17548,-1.837832 -0.0194,-3.736438 0.53677,-5.489721 0.45066,-1.421413 1.49907,-3.524955 2.75879,-4.198093 -1.23295,3.798294 -0.61174,6.207166 0.96148,9.709522 1.44922,3.299621 2.71431,6.693571 2.26611,10.46603 -0.67601,5.694273 -5.03891,9.3759695 -6.2941,14.8013985 -0.29043,1.256257 -0.44984,3.27328302 0.64099,4.11406 0.32955,0.254057 0.75179,0.349507 1.1419,0.237214 2.69578,-0.94090398 2.95488,-4.675513 3.64489,-7.269904 0.82389,-3.067321 2.42636,-5.8824055 5.09369,-7.1052075 0.43008,-0.197214 0.91535,-0.300985 1.36479,-0.407243 -0.5166,0.728723 -1.02494,1.36663 -1.40763,2.216015 -1.82532,4.0475295 -0.42512,8.3231455 -0.0786,12.5130055 0.2484,3.007055 -0.3477,6.062772 -1.88712,8.5476795 -1.35984,2.213066 -3.30092,3.863278 -4.54087,6.172261 -0.47416,0.883353 -0.70071,1.66892 -0.95036,2.645856 1.83234,-2.803064 4.19319,-4.340981 7.27906,-4.481813 0.23316,-0.01078 1.12749,-0.07532 1.25314,0.113693 -0.0922,0.146915 -0.31431,0.361204 -0.44614,0.488934 -1.36849,1.320825 -2.26487,2.983199 -2.99648,4.824768 -0.23523,0.517943 -0.65787,1.883681 -0.82019,2.443731 -1.01008,3.487107 -1.68238,6.508671 -4.38432,8.904675 -2.88319,2.556494 -5.96249,2.477891 -9.26133,3.641033 -1.14315,0.403312 -2.55448,1.384456 -3.62513,2.035746 -2.435,1.49113 -5.21921,2.083 -7.96456,1.69278 -2.72239,-0.38974 -4.92118,-1.63196 -6.61889,-4.112654 1.85034,-0.29008 3.28917,-0.583911 4.97996,-1.625879 -4.76579,0.745802 -10.06924,-1.38679 -12.15051,-6.661194 -0.41957,-1.063488 -0.88164,-2.623866 -0.86389,-3.787947 0.64151,0.577833 1.71068,1.44528 2.62556,0.99237 0.75321,-0.372428 1.04251,-1.215549 0.71501,-2.109198 -0.53004,-1.446213 -1.75142,-2.417064 -2.76801,-3.423001 -3.47677,-3.439844 -1.94248,-9.1241105 -0.87184,-13.4080095 0.36371,-1.44434 0.70871,-2.895235 1.03497,-4.35127198 0.49034,-2.24395002 0.88676,-4.37186502 0.53203,-6.69619402 -0.21611,-1.415895 -0.56874,-2.27314 -1.04893,-3.5460065 0.46112,0.1627735 0.90778,0.3742085 1.3342,0.6315405 3.48069,2.088802 4.31552,6.369193 4.37943,10.447227 0.0197,1.260463 -0.0388,2.43016 0.243,3.671443 0.48839,2.151308 2.13589,3.489441 2.76018,5.5701005 0.72256,1.961821 0.32144,4.165997 0.87045,6.148869 0.53656,1.937952 1.41161,2.590644 2.04032,0.18481 0.75551,-2.890554 1.10393,-5.840533 1.52588,-8.8022095 0.64267,-4.609541 1.23737,-9.227507 1.78405,-13.852956 0.22711,-1.824124 0.44582,-3.649741 0.65602,-5.4766675 0.17875,-1.562624 0.50179,-3.951655 0.34163,-5.501645 -0.21826,-1.559633 -1.93886,-2.01174 -2.42487,-3.369715 -0.90203,-2.520367 1.30723,-3.949272 2.95576,-4.792952 -1.61064,-1.57605 -3.51802,-2.38988 -4.95394,-4.175349 -2.03002,-2.524254 -1.79126,-6.308085 -1.18001,-9.419344 0.5913,-3.009678 1.4423,-6.194999 -0.26525,-8.990199 -0.0899,-0.147102 -0.40923,-0.653143 -0.45472,-0.795008 z"
       id="path1-3"
       style="display:block;fill:#666666;fill-opacity:1;stroke-width:0.0439022" />
    <path
       fill="#fe5e00"
       d="m 167.92372,-26.118762 c 0.74231,0.802836 1.35653,4.857941 1.43274,6.054215 0.29454,4.622782 -1.91842,8.220682 -4.12397,11.8192795 -0.83955,1.393295 -1.27868,2.524392 -1.8278,4.099275 -1.41751,4.06586502 -0.12153,11.927171 5.10564,9.050181 2.36867,-1.303511 3.77712,-4.70031398 4.55035,-7.571219 0.17095,2.47087302 0.61667,4.745227 0.27145,7.241363 -0.49845,3.958256 -3.11018,6.3369555 -5.17196,9.2714905 -1.63954,2.333314 -2.50832,5.749298 -2.46878,8.748872 2.06137,1.555227 3.72357,-0.0627 4.9973,-1.943572 -0.66076,2.000184 -0.9347,3.859069 -1.81873,5.783919 -2.48156,5.402599 -7.11512,4.505212 -11.35897,6.168988 -1.89042,0.741587 -3.49041,2.633224 -5.57122,3.207777 -1.78034,0.49174 -4.13806,0.85013 -5.83099,-0.182476 1.72229,-0.618999 3.47368,-1.764838 3.56612,-4.03545 0.14114,-3.466987 -3.18511,-2.035748 -4.83529,-1.653485 -0.57713,0.136148 -1.16463,0.207734 -1.75405,0.214288 -3.0416,0.0098 -5.25547,-1.886021 -7.30642,-4.217934 1.18636,-0.237211 2.44407,-0.538528 3.06426,-1.849056 0.56794,-1.200106 0.34793,-2.683283 -0.16038,-3.846903 -0.32247,-0.740648 -0.75117,-1.415334 -1.26854,-1.996435 -1.20683,-1.380711 -2.73053,-2.301029 -3.23133,-4.469649 -0.74163,-3.211992 0.47094,-6.8993465 1.33066,-9.9489785 0.16638,-0.590467 0.6753,-2.314131 0.89145,-2.744111 0.0125,2.584093 0.0387,4.515967 1.45181,6.693477 0.60681,0.935288 1.10345,1.638042 1.58883,2.6743955 1.33153,3.041213 0.32661,5.34505 1.4653,8.392811 0.35929,0.9774 1.04876,1.969306 1.95812,2.342205 2.11325,0.866979 3.53894,-1.5702 4.10986,-3.47915 0.63027,-2.107796 0.92329,-4.292318 1.25141,-6.445967 0.5106,-3.3949315 0.98832,-6.7959415 1.43311,-10.2030355 l 1.36927,-10.158964 c 0.275,-2.0481855 0.6037,-4.1072765 0.76889,-6.1714655 0.0695,-0.867819 0.12143,-1.871141 -0.0336,-2.726 -0.45343,-2.49927 -2.43831,-2.234454 -2.76482,-3.252041 -0.0505,-0.157489 -0.0319,-0.29411 0.0358,-0.441306 0.11237,-0.243953 0.51593,-0.46872 0.72994,-0.591442 0.88283,-0.506062 1.86742,-0.887427 2.79056,-1.293315 1.21238,-0.533005 2.4408,-1.103256 3.6787,-1.550828 0.83007,-0.30024 2.75055,-0.882655 3.52748,-0.386047 0.48939,0.312776 0.31348,1.300983 0.25788,1.822571 -0.14377,1.344267 -0.38723,2.680059 -0.61462,4.008695 -0.34275,2.003459 -0.69414,4.00495 -1.05459,6.004388 -0.61215,3.592419 -1.20205,7.1896125 -1.77053,10.7915325 -0.49886,2.98319402 -0.97755,5.971074 -1.43521,8.963156 -0.40041,2.628548 -1.6688,10.2189485 -1.11143,12.6070025 0.13841,0.594205 0.4453,1.036818 0.91328,1.342343 0.91616,0.597012 2.14458,0.395362 3.10935,0.08375 -0.60349,1.996906 -1.4731,3.162859 -3.12294,4.203894 -0.42143,0.26575 -0.88857,0.459921 -1.30051,0.733162 l -0.0461,0.03135 c 1.78578,1.343278 4.51532,0.695735 5.83067,-1.179989 2.17341,-3.098765 1.86899,-7.051874 1.24242,-10.69759 -0.14582,-0.849668 -0.36168,-1.688571 -0.52688,-2.531222 -0.21669,-1.1505165 -0.37735,-2.3131965 -0.48155,-3.4838275 -0.50093,-6.00476 0.87743,-13.213837 3.36435,-18.5575765 0.80864,-1.738262 1.83108,-3.25377 2.81234,-4.859861 1.99299,-3.262471 2.42841,-6.037838 2.09185,-9.885487 z"
       id="path2-6"
       style="display:block;fill:#cccccc;fill-opacity:1;stroke-width:0.0439022" />
    <path
       fill="#fe5e00"
       d="m 156.9421,-45.135563 c 1.10236,-0.102239 1.97157,0.002 3.02408,0.35367 -1.04387,1.004582 -1.70998,1.18612 -2.59773,2.737464 -2.28339,3.990634 0.0219,8.237899 0.81608,12.415126 -0.36787,-0.08722 -0.6583,-0.191786 -1.01504,-0.318347 -2.77238,-1.025123 -4.71261,-4.133103 -5.0885,-7.341958 -0.44609,-3.808067 1.34803,-7.352573 4.86111,-7.845955 z"
       id="path7-2"
       style="display:block;fill:#cccccc;fill-opacity:1;stroke-width:0.0439022" />
    <path
       fill="#fe5e00"
       d="m 146.26037,-38.849371 c 0.067,0.07795 0.1834,1.119961 0.23897,1.353853 0.23419,0.985629 0.6479,2.114156 1.13774,2.966588 1.81784,3.163376 4.18669,3.140543 5.37631,6.935272 l -0.40026,-0.07701 c -0.70241,-0.249098 -1.40312,-0.504185 -2.10215,-0.765307 -1.56056,-0.593409 -3.39129,-1.591208 -4.15903,-3.353524 -0.83913,-1.926115 -0.69186,-5.081537 -0.0916,-7.05987 z"
       id="path9-6"
       style="display:block;fill:#cccccc;fill-opacity:1;stroke-width:0.0439022" />
    <path
       fill="#bd1e00"
       d="m 138.38613,-27.864462 c 0.26385,0.08828 0.61315,0.277544 0.84461,0.449256 2.70768,2.008273 3.54286,5.403438 3.72963,8.868319 0.0765,1.419452 0.066,2.886903 0.41351,4.226444 0.53751,2.071953 1.86969,3.271781 2.302,5.4208435 0.76855,3.820656 -1.11078,7.09487 -2.80606,10.180064 -0.19757,0.258272 -0.48741,0.97927 -0.83926,1.442007 -0.10464,-0.600296 -0.12777,-1.612314 -0.19785,-2.28231698 -0.15657,-1.49674202 -0.45226,-2.68001002 -0.88543,-4.08598502 -0.98093,-3.183544 -3.02952,-5.44443 -3.31294,-8.9204435 -0.49871,-6.116395 3.23319,-8.936158 0.75179,-15.298188 z"
       id="path10-1"
       style="display:block;fill:#666666;fill-opacity:1;stroke-width:0.0439022" />
    <path
       fill="#fe5e00"
       d="m 140.85979,-15.926672 c 0.0252,0.104297 0.0468,0.569503 0.0464,0.681045 -0.009,3.245441 2.94528,5.12496 2.36018,8.4860165 -0.0714,0.410373 -0.0953,0.822574 -0.2392,1.221674 l -0.0462,0.01166 -0.0424,-0.151128 c -0.45264,-2.117431 -1.89112,-3.008553 -2.45206,-5.0664705 -0.5059,-1.855888 -0.38224,-3.453932 0.37327,-5.182837 z"
       id="path11-5"
       style="display:block;fill:#cccccc;fill-opacity:1;stroke-width:0.0439022" />
  </g>
  <g
     id="g13"
     inkscape:label="v"
     transform="matrix(0.87517393,0,0,0.87517393,32.247422,10.417748)">
    <path
       fill="#b61600"
       d="m 184.26693,38.224261 c 0.72693,-0.0436 1.45536,0.05561 2.14411,0.292033 4.76282,1.594266 5.63582,7.730073 4.50866,11.972487 -0.36087,1.358243 -0.95784,2.71401 -1.6358,3.94073 -0.92651,1.676399 -1.9885,3.135766 -2.61199,4.971599 0.41488,-0.110376 0.82634,-0.26392 1.23759,-0.390923 1.50749,-0.471695 2.88958,-0.936454 4.4755,-1.065278 2.32471,-0.188798 4.47478,0.844048 4.3145,3.457181 -0.0383,0.85283 -0.51252,1.582201 -0.74936,2.370668 -0.35319,1.175625 -0.20169,2.572419 -0.11793,3.782391 l 0.17691,2.608146 0.6681,9.405319 c 0.40745,-0.586558 1.06836,-1.829937 1.42498,-2.489577 1.13329,-2.0953 2.13421,-4.269644 3.11504,-6.4443 0.58248,-1.291369 1.46421,-2.895467 1.74808,-4.268891 0.32778,-1.586434 -0.99527,-2.499144 -0.31273,-4.170429 0.60445,-1.480856 1.89925,-2.288926 3.00808,-3.334315 0.72268,-0.681412 1.47265,-1.635811 1.86944,-2.530515 0.3165,-0.749601 0.69228,-2.084791 0.6333,-2.916293 -0.25094,-3.554351 1.10317,-7.280629 4.33174,-9.105484 0.33909,-0.191775 1.90961,-1.008281 2.17058,-0.415265 0.16844,0.383176 -0.67625,1.303227 -0.79263,1.678968 -1.01,1.968232 -0.88234,4.037341 0.14743,5.965205 0.57369,1.103041 1.13045,2.004681 1.53728,3.188147 0.84534,2.459719 0.6173,5.353178 -0.50846,7.690407 -0.53575,1.112733 -1.19192,2.211479 -1.75402,3.360917 1.10724,-1.054051 2.6,-2.118387 4.19028,-2.150005 0.37076,-0.03871 0.44259,0.389043 0.26505,0.625579 -0.81929,1.091061 -1.45009,1.894239 -1.69285,3.30019 -0.2795,1.61633 0.13455,3.186235 0.32401,4.795977 0.15401,1.309248 0.0963,2.514357 -0.0777,3.824862 -0.35507,2.599362 -1.5972,5.090822 -3.65737,6.747614 -0.89551,0.720495 -1.86192,1.299525 -2.74238,2.032879 -0.20671,0.171891 -0.41217,0.345349 -0.61762,0.51912 0.88641,-0.329352 3.61752,-1.297014 4.45658,-1.128889 0.10472,0.02102 0.20766,0.06618 0.25783,0.167497 0.0364,0.0734 0.0307,0.153069 0.005,0.22898 -0.11349,0.346287 -0.81396,0.901794 -1.07964,1.204794 -0.22773,0.259404 -0.44071,0.53951 -0.63707,0.823697 -0.57902,0.839061 -1.01471,1.78759 -1.51908,2.673696 -1.35693,2.38325 -3.16115,4.311987 -5.60682,5.594581 -4.70939,2.470126 -11.09565,2.69628 -16.12605,1.101287 -3.6051,-1.143326 -7.43015,-3.22419 -9.21749,-6.715633 -0.34588,-0.675633 -0.604,-1.410559 -0.82399,-2.135444 -0.38409,-1.265649 -0.60025,-2.573642 -0.93685,-3.852778 -0.16441,-0.624826 -0.3364,-1.258434 -0.53596,-1.872594 -0.12186,-0.375148 -0.28406,-0.743078 -0.38396,-1.124498 -0.0367,-0.139895 -0.083,-0.324648 -0.0205,-0.462659 0.0343,-0.07622 0.10568,-0.127977 0.18404,-0.151188 0.70602,-0.210471 2.86573,1.181272 3.54726,1.5652 -0.66523,-2.400499 -2.04844,-2.995526 -3.54799,-4.702192 -0.90013,-1.040431 -1.54709,-2.275027 -1.89022,-3.607175 -0.7474,-2.92683 -0.0895,-5.801278 1.09138,-8.512935 1.12534,-2.583994 2.17249,-5.36174 1.56232,-8.226213 -0.098,-0.460213 -0.18432,-0.915469 -0.3409,-1.361129 -0.0977,-0.286189 -0.29329,-0.768046 -0.0727,-1.020831 0.27673,-0.317054 0.86698,0.151127 1.11076,0.318779 0.90099,0.650171 1.61323,1.595691 2.06795,2.603787 0.15421,0.366739 0.27057,0.753555 0.41677,1.122837 0.24241,0.612247 0.5273,1.207555 0.89642,1.754309 0.17153,0.254102 0.35026,0.51545 0.5767,0.72658 l 0.0334,0.03074 c -0.16618,-0.384496 -0.40883,-0.794649 -0.60418,-1.171865 -0.28904,-0.55588 -0.53885,-1.131303 -0.74752,-1.722033 -1.12469,-3.228927 -0.39049,-5.9759 1.44502,-8.712616 0.60639,-0.904117 1.32917,-1.90365 1.79597,-2.862091 0.94207,-1.934263 0.92901,-4.018709 -0.12726,-5.906014 -0.22135,-0.413914 -0.64474,-0.789877 -0.79603,-1.234876 -0.15996,-0.470589 0.18937,-0.598261 0.54652,-0.682257 z m -0.78911,32.634748 0.0691,0.01787 c 0.0473,-0.21486 0.0462,-0.63455 0.0567,-0.866664 0.0646,-1.425932 0.0676,-3.853373 -0.89856,-4.980067 -0.29626,1.850292 -0.61417,3.954373 0.57648,5.588582 0.0602,0.08406 0.1256,0.164363 0.19605,0.24027 z"
       id="path1-4"
       style="display:block;fill:#666666;fill-opacity:1;stroke-width:0.0313668" />
    <path
       fill="#ef4200"
       d="m 211.3506,47.657557 c 0.0484,0.07034 -0.0236,0.656883 -0.0232,0.796622 9.5e-4,0.24607 0.0107,0.481164 0.0342,0.727519 0.0831,0.82435 0.28512,1.632324 0.60005,2.398645 0.65964,1.630288 1.57773,2.613762 1.97045,4.483972 0.81679,3.887532 -1.11353,6.439342 -3.05575,9.516297 -1.26001,2.107845 -2.47954,4.541592 -2.62163,7.029917 -0.0494,0.861643 0.25,2.22296 1.30392,2.193163 1.11886,-0.0059 2.07931,-1.570221 2.39736,-2.5084 0.74276,-2.190341 0.91058,-3.707235 2.63699,-5.455619 -0.24089,1.089368 -0.4087,2.696913 -0.33216,3.808865 0.0991,1.435655 0.28449,2.628219 0.21329,4.077675 -0.16122,3.282848 -1.40648,5.711259 -4.05133,7.686424 -0.90398,0.671564 -1.85943,1.252787 -2.68751,2.022526 -0.73869,0.672506 -1.33088,1.343125 -1.84216,2.222651 -0.33312,0.57307 -0.77634,1.684079 -0.2453,2.288514 0.32215,0.366368 0.97332,0.277285 1.38015,0.05927 0.81648,-0.437248 1.56928,-1.032908 2.30106,-1.600329 0.33939,-0.262227 0.70513,-0.510334 1.01346,-0.80707 -1.68314,3.537855 -3.52844,5.949964 -7.26016,7.440194 -4.53437,1.810802 -10.73361,1.513133 -15.20343,-0.293904 -3.34579,-1.352531 -6.04811,-3.348088 -7.02438,-6.946482 -0.39429,-1.452906 -0.60247,-2.622574 -1.18216,-4.046312 0.35082,0.178164 0.77551,0.382049 1.1017,0.642393 0.5843,0.465795 1.20896,1.396762 1.98648,1.565515 0.1196,0.01976 0.30869,-0.03828 0.39057,-0.125156 0.46465,-0.492769 0.21969,-1.789156 0.10557,-2.371951 -0.35567,-1.837152 -1.2042,-3.543503 -2.45478,-4.93556 -0.63723,-0.717042 -1.35841,-1.272548 -1.96328,-2.000884 -1.60111,-1.927487 -1.94841,-4.043487 -1.72778,-6.448063 0.11033,-0.794205 0.26084,-1.540733 0.51812,-2.301661 0.8197,-2.424274 2.05876,-4.389024 2.31292,-6.989894 0.4789,0.940724 0.81461,2.317001 0.86311,3.370361 0.0481,1.044291 -0.0933,2.087644 -0.16526,3.128676 -0.0785,0.997397 -0.0324,2.00082 0.13716,2.986992 0.20399,1.144572 0.62562,2.254956 1.36105,3.166159 0.53179,0.658703 1.06614,1.146142 1.34989,1.967009 0.5094,1.473925 0.47179,3.046026 0.59192,4.578605 0.0829,0.98868 0.19172,2.011234 0.36755,2.987997 0.20106,0.938807 0.59437,2.23739 1.33789,2.870685 1.22879,1.046707 1.43362,0.225528 1.1757,-0.905871 -0.0229,-0.100379 -0.0293,-0.483363 -0.0341,-0.596281 -0.14892,-4.062937 -0.43228,-8.119911 -0.84967,-12.164342 -0.17099,-1.701018 -0.31069,-3.618468 -0.76526,-5.252393 -0.28877,-1.038052 -0.93185,-2.134224 -1.83941,-2.726963 -0.23587,-0.154072 -0.55381,-0.314733 -0.81132,-0.449424 0.47577,-0.455852 1.73611,-0.677771 2.3991,-0.840252 0.67027,-0.17048 1.33817,-0.350052 2.00352,-0.538694 1.49297,-0.433926 3.04925,-1.016031 4.55897,-1.354352 0.69268,-0.155233 1.93878,-0.192058 2.54645,0.238261 0.86296,0.611088 -0.0688,1.885456 -0.29908,2.615174 -0.10796,0.336 -0.24572,0.730781 -0.27804,1.091467 -0.13803,1.541081 0.0485,3.240813 0.14569,4.782803 l 0.48746,7.715281 c 0.0952,1.359434 0.1802,2.719496 0.25513,4.080186 0.0553,1.164646 0.0623,2.366308 0.23631,3.51935 0.0464,0.307394 0.20088,1.322735 0.68554,1.143632 0.61258,-0.226469 1.09217,-1.027264 1.44599,-1.55391 0.74841,-1.250278 1.47643,-2.537258 2.16494,-3.817647 1.73552,-3.244578 3.33177,-6.561925 4.78437,-9.942946 0.50688,-1.168413 1.14237,-2.28946 1.35096,-3.54595 0.20232,-1.218283 -0.0693,-2.047149 -0.45261,-3.168857 -0.0737,-0.215898 -0.0408,-0.643927 0.0665,-0.858916 0.5605,-1.12249 1.82554,-1.754153 2.64294,-2.677874 0.68223,-0.75465 1.20668,-1.393938 1.66214,-2.303133 0.67563,-1.348176 0.93378,-2.859771 0.96579,-4.353269 0.0142,-0.659139 -0.0317,-1.29761 0.0558,-1.94869 0.17471,-1.29761 0.56838,-2.281238 1.26157,-3.371766 z"
       id="path2-76"
       style="display:block;fill:#cccccc;fill-opacity:1;stroke-width:0.0313668" />
    <path
       fill="#ef4200"
       d="m 186.38219,40.335773 c 0.1525,0.04461 0.3578,0.185879 0.49188,0.279289 1.9629,1.367278 2.46302,3.732172 2.51923,5.973922 0.0667,2.662599 -0.69946,5.100581 -2.05932,7.374479 -1.01592,1.698701 -2.04508,3.255966 -2.79446,5.110492 -0.0607,0.155642 -0.12281,0.296888 -0.19051,0.448921 -1.00065,-1.693554 -1.48465,-2.932915 -1.51607,-4.953156 -0.0628,-4.041135 3.42927,-6.04368 4.25889,-9.762493 0.37937,-1.700672 0.19171,-3.005562 -0.70964,-4.471454 z"
       id="path8-5"
       style="display:block;fill:#cccccc;fill-opacity:1;stroke-width:0.0313668" />
  </g>
  <g
     id="g15"
     inkscape:label="e"
     transform="matrix(0.87517393,0,0,0.87517393,29.808253,10.202293)">
    <path
       fill="#d11500"
       d="m 235.14526,41.677296 c 0.41731,-0.02174 0.53089,0.226085 0.54973,0.614591 0.009,0.497946 -0.0288,1.006566 -0.0305,1.504663 -0.005,1.58738 0.61655,2.559676 1.45932,3.817002 1.20485,1.798078 1.70793,3.977366 1.43094,6.129408 -0.26114,2.030512 -1.26475,3.82664 -2.68363,5.284349 -0.41414,0.427589 -0.73955,0.771688 -1.25116,1.092838 1.81165,-0.621698 4.42431,-0.948273 6.31792,-0.705354 0.65512,0.02179 1.46741,0.384966 2.11123,0.2995 1.33485,-0.177237 2.3605,-1.37131 2.62929,-2.620582 0.35809,-1.664707 -0.38296,-3.037431 -0.50902,-4.651773 -0.15573,-1.991847 0.42055,-3.8525 1.7294,-5.366113 0.71138,-0.816823 1.70227,-1.705265 2.81921,-1.810514 0.091,0.04183 0.21226,0.09338 0.2767,0.164009 0.27726,0.303881 -0.25465,1.163775 -0.40841,1.543007 -0.11248,0.273752 -0.19868,0.557483 -0.25746,0.847459 -0.26963,1.35472 0.0541,2.867062 0.77241,4.03717 0.35442,0.577409 0.80042,1.082465 1.17998,1.641249 0.39285,0.577833 0.72607,1.194073 0.99428,1.839284 1.05873,2.55507 0.87728,5.232997 -0.26679,7.721422 -0.43554,0.946831 -0.94709,1.769984 -1.26844,2.765627 -0.27245,0.844068 -0.26313,1.366676 -0.35583,2.198987 0.33605,-0.794327 1.13221,-1.888888 1.74636,-2.496481 0.87389,-0.838246 2.05273,-1.652976 3.30647,-1.682259 0.37277,-0.0087 0.75602,0.176615 0.58504,0.608555 -0.11928,0.300717 -0.40359,0.593914 -0.58956,0.866933 -0.56301,0.8268 -0.83065,1.793246 -0.88548,2.785779 -0.10259,1.684066 0.4115,3.089574 0.80549,4.693205 0.33547,1.366222 0.47284,2.772297 0.45276,4.182327 -0.0367,2.586892 -1.24327,5.808567 -3.1578,7.601277 0.0794,-0.0056 0.15913,-0.0085 0.23883,-0.0082 0.3236,0.0016 1.27182,0.0096 1.47079,0.271041 0.0379,0.04946 0.0454,0.121248 0.0388,0.181446 -0.0412,0.362047 -1.2105,1.453272 -1.50867,1.818145 -1.00643,1.231127 -1.62031,2.710119 -2.60894,3.95566 -0.64015,0.80662 -1.34304,1.609566 -2.15758,2.246326 -0.27613,0.259171 -0.90865,0.709962 -1.24017,0.92052 -4.06729,2.586891 -9.327,3.373446 -14.01656,2.390183 -4.33642,-0.909213 -8.02832,-3.335009 -9.84504,-7.478333 -0.64257,-1.432642 -0.93566,-2.981724 -1.66538,-4.375927 -0.3417,-0.652871 -0.74039,-1.045724 -1.17406,-1.624262 -0.24303,-0.324175 -0.25792,-0.589563 0.11553,-0.813403 0.82004,-0.02996 1.62633,0.206035 2.361,0.55819 -1.31936,-1.919891 -2.74531,-3.466432 -3.54193,-5.705409 -1.39032,-3.800779 -0.21745,-7.881361 1.94429,-11.135624 0.41351,-0.62243 0.8326,-1.27256 1.27583,-1.857204 1.59061,-2.098088 2.82753,-4.779549 1.97417,-7.441055 -0.0397,-0.123932 -0.14056,-0.421737 -0.13776,-0.550135 0.0156,-0.71516 0.79039,-0.541515 1.15965,-0.194616 2.15515,1.984527 2.865,5.458758 2.1073,8.232128 -0.34745,1.271714 -0.85232,2.512393 -1.20555,3.817965 0.28169,-0.551945 0.60121,-1.083765 0.95625,-1.591648 1.23683,-1.79203 2.36191,-3.163708 1.75848,-5.487078 -0.10288,-0.396104 -0.24018,-0.850371 -0.31612,-1.248085 -0.23326,-1.221744 -0.24826,-2.5352 0.11362,-3.732157 0.19987,-0.652955 0.59396,-1.424389 0.99865,-1.979243 0.81118,-1.112196 1.75109,-2.066943 2.09666,-3.456256 0.20669,-0.831039 0.14259,-1.617113 0.12588,-2.461915 -0.0238,-1.205069 0.16656,-2.518073 0.6947,-3.608734 0.53417,-1.103159 1.29457,-2.12695 2.48494,-2.547889 z m -1.0512,33.812861 c 2.19805,-1.423032 4.16254,-3.407645 4.788,-6.032127 0.13283,-0.556777 0.30891,-2.192852 -0.49375,-2.308815 -0.81143,0.171866 -1.36198,0.803822 -1.83708,1.446942 -1.57944,2.137937 -2.46107,4.576733 -2.9196,7.176345 0.16771,-0.09496 0.30126,-0.176642 0.46243,-0.282345 z m -0.12204,7.623604 c 0.24939,0.878125 0.47468,1.524494 1.12619,2.20591 1.98181,1.816167 5.12549,0.73144 6.71527,-1.070029 1.40042,-1.586955 1.97416,-3.524087 1.8368,-5.626556 -0.0111,-0.174946 -0.0641,-1.275499 -0.12493,-1.365658 -2.16464,1.899825 -4.69869,3.562807 -7.27123,4.864874 -0.77164,0.390592 -1.52358,0.64863 -2.2821,0.991459 z"
       id="path1-47"
       style="display:block;fill:#666666;fill-opacity:1;stroke-width:0.0282627" />
    <path
       fill="#fe4900"
       d="m 247.9513,48.144892 0.0217,0.02741 c -0.0243,0.17633 -0.0769,0.360377 -0.0958,0.531283 -0.05,0.447909 -0.006,0.947454 0.0614,1.383605 0.27104,1.740253 0.9844,2.571405 1.99421,3.889864 2.01374,2.628383 2.07732,5.845565 0.76028,8.784103 -0.56412,1.258852 -1.16782,2.305536 -1.41342,3.71455 -0.18258,1.04804 -0.17353,1.986025 -0.0491,3.046474 0.13114,1.114967 0.2716,1.926391 0.18738,3.055773 -0.10825,1.452989 -1.08388,2.489668 -1.28511,3.795409 1.38035,-0.347067 2.47667,-2.420991 2.60469,-3.730124 0.0461,-0.469727 0.0591,-0.954999 0.10316,-1.426705 0.18032,-1.912542 1.12288,-3.671646 2.61517,-4.881239 -0.75039,2.213685 2.3e-4,4.657397 0.50137,6.816675 0.81849,3.526348 0.48923,7.891818 -2.32433,10.485493 -1.11242,1.025374 -2.45208,1.685593 -3.27622,3.094775 -0.0839,0.143858 -0.45165,0.765357 -0.42055,0.906105 0.13284,-0.0026 0.40811,-0.146684 0.53445,-0.212253 1.03611,-0.538972 2.07138,-0.969414 3.15186,-1.407204 -0.46492,0.891691 -0.78061,1.551062 -1.33429,2.422686 -2.2483,3.538219 -5.45725,5.640688 -9.54038,6.519095 -4.10396,0.880669 -8.64479,0.399918 -12.26141,-1.809101 -3.28001,-2.003549 -4.82915,-5.459523 -5.62509,-9.093835 1.31704,0.709114 1.80653,1.238758 2.83498,2.265827 -0.0608,-0.79277 -0.3903,-1.672308 -0.73279,-2.391596 -0.46571,-0.973371 -1.01189,-1.906043 -1.63286,-2.788124 -1.2406,-1.759924 -2.48294,-3.036554 -3.06776,-5.224376 -0.74958,-2.804233 -0.14041,-5.585574 1.27717,-8.059332 0.33879,-0.706174 1.20629,-1.886625 1.66494,-2.529944 1.313,-1.841715 2.4688,-3.701265 2.76027,-5.985435 0.52536,1.794687 0.32412,3.605483 -0.23716,5.360688 -0.37059,1.158802 -0.80731,2.32645 -0.9619,3.539264 -0.17875,1.402117 -0.13224,3.05888 0.55496,4.321379 0.084,-0.17212 0.21256,-0.564126 0.28687,-0.759705 0.15197,-0.388046 0.31928,-0.770159 0.5015,-1.144924 1.6034,-3.285351 3.83537,-6.41537 7.13176,-8.186825 2.56714,-1.379563 6.37092,-2.060696 9.18308,-1.175929 1.54003,0.483633 2.82768,1.554142 3.58456,2.979943 0.94822,1.830072 0.96065,4.306147 0.30524,6.253085 -1.80741,5.368234 -7.26834,8.858405 -12.23881,10.952396 -0.50576,0.2131 -1.11892,0.375329 -1.58848,0.631107 -0.003,0.354415 0.0388,0.69159 0.10229,1.036679 0.58137,3.160345 2.98297,5.033602 6.2246,4.377623 2.93961,-0.581083 5.10199,-2.935374 5.95695,-5.725193 0.6622,-2.160972 0.0221,-4.173283 0.28829,-6.339625 0.013,-0.107116 0.33858,-0.512971 0.42959,-0.624042 2.6369,-3.226763 3.42544,-7.838459 1.35745,-11.566715 -0.61585,-1.110502 -1.3781,-1.816648 -2.4224,-2.502811 0.6636,-0.357327 1.16471,-0.679975 1.66072,-1.263263 1.07936,-1.26962 1.32412,-2.925622 1.02763,-4.526342 -0.15601,-0.841862 -0.41517,-1.535969 -0.47283,-2.417232 -0.11504,-1.762522 0.16054,-3.062018 1.31223,-4.419423 z m -13.85724,27.345265 c 2.19805,-1.423032 4.16254,-3.407645 4.788,-6.032127 0.13283,-0.556777 0.30891,-2.192852 -0.49375,-2.308815 -0.81143,0.171866 -1.36198,0.803822 -1.83708,1.446942 -1.57944,2.137937 -2.46107,4.576733 -2.9196,7.176345 0.16771,-0.09496 0.30126,-0.176642 0.46243,-0.282345 z"
       id="path2-4"
       style="display:block;fill:#cccccc;fill-opacity:1;stroke-width:0.0282627" />
    <path
       fill="#fe4900"
       d="m 234.3203,44.098991 c 0.0476,0.04966 0.10497,0.861336 0.14073,1.03583 0.22093,1.078028 0.75634,1.989956 1.34576,2.907535 0.90472,1.408363 1.40579,2.763648 1.41257,4.459641 0.0153,3.875054 -2.8756,6.216881 -5.37156,8.717996 -0.28919,0.298738 -0.7028,0.703459 -0.9578,1.015313 -0.71109,-1.642437 -1.25693,-3.886162 -0.86026,-5.65301 0.35463,-1.950161 2.56936,-3.480535 3.07258,-5.285509 0.75838,-2.720151 -0.34523,-4.482393 1.21798,-7.197796 z"
       id="path8-6"
       style="display:block;fill:#cccccc;fill-opacity:1;stroke-width:0.0282627" />
  </g>
  <g
     id="g16"
     inkscape:label="r"
     transform="matrix(0.86307854,0,0,0.86307854,29.641074,11.435339)">
    <path
       fill="#da1600"
       d="m 280.06415,37.737911 c 0.47504,-0.02546 0.60891,0.217685 0.56041,0.664335 -0.0652,0.601006 -0.20183,1.19123 -0.28311,1.791154 -0.22949,1.694756 0.12294,3.340679 1.03306,4.78839 0.36951,0.588244 0.8261,1.173415 1.17751,1.776616 2.34854,3.950642 0.92411,8.517635 -2.10061,11.649585 1.82706,-0.4207 3.69886,-0.242264 5.51976,0.04921 2.25428,0.360836 3.28427,-2.365166 3.05683,-4.192154 -0.11407,-0.917729 -0.33742,-1.801957 -0.45387,-2.727129 -0.11542,-0.939619 -0.11645,-1.889724 -0.003,-2.829548 0.2691,-2.160127 1.39403,-4.121771 3.12273,-5.444662 1.3025,-1.001568 3.94302,-2.292495 2.38883,0.561025 -0.22744,0.503346 -0.38044,1.02872 -0.53514,1.554502 -0.44703,1.519359 -0.13728,3.045105 0.85035,4.284703 0.585,0.734305 1.1297,1.393685 1.6126,2.218831 1.90799,3.227231 1.87213,7.407912 0.0861,10.680461 -0.8944,1.639022 -1.89023,3.040255 -2.38883,4.910205 0.81141,-1.428006 1.64093,-2.49873 3.03223,-3.548212 0.53616,-0.404582 3.1381,-1.941973 3.92357,-0.983845 0.31315,0.382112 -0.60106,1.69749 -0.891,2.122051 -1.63308,2.390438 -0.94256,5.030484 0.0362,7.507767 1.1741,3.028474 1.85336,6.25468 0.919,9.475422 -0.84318,2.905532 -2.74639,5.808333 -5.446,7.317445 1.09487,0.323748 2.33112,0.608563 0.80083,1.697967 -0.44634,0.317944 -0.91728,0.640324 -1.35885,0.964417 -1.17034,0.818243 -2.15387,2.015905 -3.03564,3.12614 -3.10258,3.906153 -7.89186,6.226343 -12.81842,6.702393 -5.45286,0.52729 -11.05462,-1.32026 -14.99966,-5.15571 -0.30364,-0.2954 -0.57888,-0.69326 -0.90738,-0.949727 -0.55874,-0.04884 -1.0948,-0.134211 -1.59794,-0.396148 -0.4553,-0.237347 -0.80793,-0.61027 -0.9622,-1.108186 -0.25735,-0.831228 0.0477,-4.249018 0.50397,-4.977446 0.39386,-0.628717 1.08008,-0.968514 1.43329,-1.655966 0.32328,-0.629393 0.38482,-1.373879 0.30794,-2.067134 -0.27938,-2.517923 -1.76012,-3.879507 -2.98004,-5.906345 -0.48498,-0.818247 -0.87484,-1.689087 -1.16208,-2.595785 -1.75582,-5.399892 -0.16563,-10.991128 3.47793,-15.197797 2.02212,-2.334672 4.40041,-4.377014 4.37937,-7.761029 -0.005,-0.488491 -0.0467,-0.975922 -0.12536,-1.458059 -0.0718,-0.420121 -0.57729,-1.925035 -0.35975,-2.235703 0.47162,-0.673586 1.74335,0.529335 2.12457,0.86039 1.29032,1.120515 2.21604,2.532437 2.65214,4.189082 0.43542,-0.807457 0.86121,-1.571644 1.408,-2.313702 0.86988,-1.18062 1.94166,-2.261896 2.46219,-3.663607 0.43975,-1.184239 0.42455,-2.219037 0.46994,-3.433911 0.0677,-1.813498 0.46995,-3.516588 1.37685,-5.106127 0.7731,-1.355027 2.15589,-2.754748 3.69281,-3.184159 z"
       id="path1-8"
       style="display:block;fill:#666666;fill-opacity:1;stroke-width:0.0341506" />
    <path
       fill="#fe4b00"
       d="m 297.64145,65.363407 c 0.0215,0.0611 -0.27389,1.078783 -0.32136,1.270744 -0.90977,3.696766 1.28475,6.551072 1.85063,10.051167 0.48835,3.021302 -0.13626,6.146764 -1.98688,8.641465 -1.30626,1.761145 -2.73239,2.589298 -4.69537,3.435888 -1.87828,0.858547 -3.67631,2.573249 -4.90129,4.232284 1.64572,-1.39539 3.11419,-1.853694 5.26568,-1.884429 -0.99754,0.777269 -2.08079,2.32395 -2.86831,3.316022 -0.42312,0.536508 -0.8845,1.041935 -1.38071,1.511846 -2.27511,2.181886 -6.06788,3.699876 -9.16909,4.078946 -4.86987,0.59491 -10.63029,-0.93026 -14.09084,-4.551591 0.41039,-0.08093 1.36049,-0.104842 1.80797,-0.130795 1.39782,-0.08059 2.79991,-0.07854 4.19922,-0.120892 1.4957,-0.027 2.99347,-0.0092 4.48842,-0.06182 1.02588,-0.03619 3.33672,0.02354 4.03748,-0.763263 0.13148,-0.147531 0.21413,-0.314188 0.28379,-0.497576 0.34834,-0.913528 1.32266,-4.977105 1.23353,-5.865021 -0.0218,-0.217882 -0.10246,-0.378732 -0.28106,-0.509528 -0.53413,-0.391366 -1.63684,-0.344918 -2.41856,-0.980119 -0.51471,-0.418006 -0.67733,-1.007103 -0.73607,-1.63923 -0.0353,-0.424492 -0.0341,-0.851716 0.003,-1.276208 0.0566,-0.62837 0.17721,-1.321969 0.29814,-1.951706 0.56617,-2.94822 1.0518,-5.972596 2.09408,-8.797191 0.23119,-0.627004 0.68266,-1.19732 1.10169,-1.702407 0.004,0.245543 0.0195,0.756095 -0.004,0.97295 -0.40879,3.8235 0.91386,5.21821 4.71722,3.895217 2.89528,-1.007102 4.85211,-2.690725 6.25194,-5.4518 10e-4,0.88006 0.0448,1.739973 -0.11406,2.602957 -0.32169,1.745437 -1.54736,2.671943 -2.2857,4.180374 -0.28208,0.575779 -0.3678,1.046033 -0.49997,1.666549 0.38864,-0.240762 0.81894,-0.419369 1.21372,-0.653984 1.83491,-1.09077 3.39491,-2.980322 3.61825,-5.158447 0.0539,-0.525235 -0.008,-1.063449 0.0184,-1.582879 0.069,-1.339728 0.53445,-2.657667 1.20722,-3.809089 0.55666,-0.967555 1.24103,-1.71938 2.06201,-2.468439 z"
       id="path2-43"
       style="display:block;fill:#cccccc;fill-opacity:1;stroke-width:0.0341506" />
    <path
       fill="#fe4b00"
       d="m 283.74182,60.5604 c 1.90971,-0.22775 3.60459,0.548049 4.91803,1.911785 4.14725,4.305979 0.87323,11.990954 -5.17314,11.868695 -0.39613,-1.508431 0.77694,-5.530927 -1.79358,-5.925639 -0.39991,-0.0614 -1.01598,0.2173 -1.30831,0.52124 -2.61983,2.724602 -2.99835,6.970203 -3.69137,10.510595 -0.44273,2.458843 -1.49026,6.421678 0.31869,8.534576 0.63643,0.743455 1.68591,0.95314 2.6142,0.984902 0.0423,0.897474 -0.20286,1.847544 -0.50372,2.687309 -0.31761,0.885522 -0.58231,1.358167 -1.61,1.342799 -0.36595,-0.0055 -0.89048,0.03279 -1.27201,0.04646 -1.30899,0.05191 -2.61849,0.08913 -3.9283,0.112014 -1.33253,0.0061 -2.66474,0.04198 -3.99562,0.107912 l -3.41434,0.181685 c -0.52746,0.02559 -1.57196,0.116796 -2.03746,0.0078 -0.11082,-0.136944 0.0815,-1.817491 0.077,-2.137483 -0.0197,-1.391294 1.0644,-1.263573 1.98964,-1.663817 0.32559,-0.142748 0.62664,-0.33604 0.89198,-0.572705 1.31852,-1.159757 2.0045,-3.520927 2.47442,-5.169034 0.38211,-1.340069 0.59511,-2.878553 0.83283,-4.258919 l 0.68752,-3.941662 0.71067,-4.16159 c 0.16984,-1.019737 0.34423,-2.046645 0.42644,-3.074304 0.0786,-0.981454 -0.255,-1.281296 -1.19619,-1.26989 -0.43361,0.0052 -0.93395,0.0334 -1.3552,0.0055 l -0.0546,-0.0039 c -0.0604,-0.860013 0.0435,-3.297682 0.4483,-4.007571 0.53907,-0.346867 3.2051,-0.715727 3.98698,-0.87323 0.69866,-0.140768 1.39191,-0.287821 2.15654,-0.478655 0.62372,-0.121541 2.06382,-0.823575 2.62403,-0.772588 0.87511,0.07967 0.49221,3.366291 0.40776,3.937835 0.30244,-0.578066 0.7886,-1.170373 1.24144,-1.649268 1.2202,-1.290038 2.69551,-2.585712 4.52734,-2.800997 z"
       id="path4-9"
       style="display:block;fill:#cccccc;fill-opacity:1;stroke-width:0.0341506" />
    <path
       fill="#fe4b00"
       d="m 268.10506,54.012265 c 0.93394,2.276239 1.00478,4.661008 0.0635,6.925533 -0.75043,1.805303 -1.49604,3.336684 -1.49621,5.356622 -7e-5,1.009355 0.0411,2.041011 1.12438,2.517547 0.26508,0.116626 0.92008,0.300083 1.08032,0.591421 0.16754,0.50338 0.0353,1.447984 -0.0201,2.000541 -0.29309,2.344096 -0.79059,4.661555 -1.19483,6.995407 l -0.66768,3.831695 c -0.19944,1.134484 -0.40188,2.398738 -0.77898,3.485066 -0.29373,0.845914 -0.677,1.497504 -1.49548,1.895019 -0.003,-0.68882 -0.0267,-1.377294 -0.0703,-2.064404 -0.2132,-1.707188 -0.68684,-3.147659 -1.71214,-4.550224 -0.37617,-0.51465 -0.8343,-1.004711 -1.20712,-1.517311 -2.27388,-3.128194 -2.69294,-7.339645 -1.57434,-10.985048 0.58571,-1.908746 1.53042,-3.492376 2.6843,-5.090078 1.24657,-1.726106 3.08646,-3.227743 4.09087,-5.052238 0.54418,-1.010823 0.90027,-2.112042 1.05098,-3.250077 0.0523,-0.368246 0.0703,-0.736492 0.12287,-1.089471 z"
       id="path6-0"
       style="display:block;fill:#cccccc;fill-opacity:1;stroke-width:0.0341506" />
    <path
       fill="#fe4b00"
       d="m 278.64338,40.596684 c 0.0184,0.116965 -0.0656,0.723889 -0.0594,0.931799 0.0283,0.943307 0.19097,1.639843 0.42831,2.528817 0.49928,1.916701 1.964,3.098517 2.51759,5.000705 1.43603,4.934759 -2.61423,8.808972 -6.60644,10.843084 -0.36605,0.186496 -0.819,0.310293 -1.21477,0.42917 -0.72614,0.202479 -2.06126,0.428966 -2.81335,0.417935 0.10521,-0.341608 0.33498,-0.727339 0.42459,-1.046817 0.12783,-0.455877 0.23772,-0.974385 0.34312,-1.440985 0.26189,-1.159481 0.68437,-2.221837 1.28358,-3.248506 1.0098,-1.730171 2.54121,-2.98746 3.25697,-4.892925 0.59497,-1.583871 0.48162,-2.895322 0.60153,-4.496471 0.11481,-1.532748 0.77972,-3.924553 1.83826,-5.025806 z"
       id="path8-8"
       style="display:block;fill:#cccccc;fill-opacity:1;stroke-width:0.0341506" />
    <path
       fill="#fe4b00"
       d="m 291.68593,45.684917 c 0.0243,0.134075 -0.0717,0.628814 -0.0806,0.808105 -0.0389,0.764973 -0.008,1.317222 0.16768,2.049957 0.2913,1.494703 1.30319,2.289216 2.15866,3.420899 2.08011,2.752571 2.26862,6.623541 0.70964,9.661987 -0.5406,1.05351 -1.19663,1.944602 -1.87452,2.904473 -0.10313,0.146028 -0.31419,0.616178 -0.44293,0.659413 l -0.0454,-0.08654 c -0.4822,-1.86896 -0.91387,-3.276135 -2.51656,-4.514571 -0.35721,-0.275869 -0.99002,-0.604978 -1.26903,-0.89133 0.36234,-0.388703 1.03067,-1.126491 1.31274,-1.565565 0.91115,-1.418139 1.1,-3.109616 0.81962,-4.745054 -0.17759,-1.03811 -0.37566,-1.909189 -0.39171,-2.968165 -0.0205,-1.366638 0.14139,-2.472469 0.77215,-3.691986 0.20046,-0.387951 0.376,-0.722319 0.68028,-1.041626 z"
       id="path10-2"
       style="display:block;fill:#cccccc;fill-opacity:1;stroke-width:0.0341506" />
  </g>
  <g
     id="g14"
     inkscape:label="S"
     transform="matrix(1.0657937,0,0,1.0657937,-2.2219079,-0.27156451)">
    <path
       fill="rgb(249,62,0)"
       d="m 44.118258,4.237421 c 0.912193,-0.09805 2.16353,-0.16704 3.045239,-0.0435 2.037103,0.285633 3.966065,1.685079 5.089632,3.37835 0.674379,0.984413 1.373584,2.254765 2.38629,2.945763 2.026602,1.383048 4.744882,1.405394 6.780711,2.946816 0.822183,0.622635 1.730961,1.294585 2.284673,2.175443 1.092386,1.737027 2.244264,3.492542 4.603994,3.074178 1.086625,-0.188858 1.150127,-0.901811 1.321041,-1.853955 0.214773,-1.195464 0.08021,-2.435263 -0.151916,-3.611441 -0.580272,-2.944437 -2.46252,-5.398563 -4.960249,-7.00709 0.94691,0.145119 1.893225,0.318956 2.81587,0.659374 4.364377,1.610702 8.825767,5.298118 9.438359,10.165502 0.189964,1.9397 0.122349,4.098507 1.615494,5.575084 0.567562,0.555446 1.806613,0.713921 2.292762,-0.02056 0.253465,-0.383325 -0.01852,-1.671723 -0.116061,-2.100606 -0.219412,-0.964787 -0.387998,-1.797997 -0.353945,-2.788783 0.06525,-1.90857 0.907062,-3.266843 1.933057,-4.78575 -0.026,0.924667 -0.07154,1.861449 0.109774,2.767067 0.481526,2.399867 2.378779,3.492559 4.030077,5.032876 0.855675,0.798631 1.747715,1.893667 2.289872,2.93815 1.475779,2.844095 1.659965,5.661867 0.730387,8.681311 0.311207,-0.475239 0.559473,-0.990157 0.894929,-1.500078 0.4723,1.615086 0.711321,4.541868 0.225172,6.159843 -0.767329,2.553448 -2.419205,6.372321 -4.297986,8.207805 -1.159932,1.055256 -2.642644,1.727443 -4.218307,1.676515 -4.218885,-0.136283 -6.548011,-1.804064 -8.470668,-5.541592 -0.43534,-0.847247 -1.243673,-2.508927 -1.888025,-3.098664 -1.545059,-1.414452 -3.9123,-1.717689 -5.889232,-1.696159 -1.699217,1.60523 -1.894363,4.513405 -0.504042,6.400852 0.179564,0.243083 0.693428,0.66335 0.935916,0.88662 1.143211,0.799955 2.337792,1.563309 3.625341,2.116205 -0.944582,-2.146979 -1.246545,-3.509535 -1.735582,-5.785371 0.726903,1.280853 1.38801,2.564409 2.505223,3.576674 2.955006,2.678618 6.602302,4.444006 9.884677,6.623543 2.202682,1.462593 6.057257,4.741348 6.620196,7.319334 1.629921,-2.433071 -1.370695,-4.671269 2.665738,-7.646361 -0.775996,3.389361 -0.737303,4.190184 1.086047,7.286656 0.394353,0.668601 0.903018,1.3701 1.293904,2.051412 1.714801,2.989655 2.015608,6.705636 1.281194,10.03537 -0.37646,1.706712 -1.133968,3.668639 -1.750604,5.34823 2.209615,-1.937101 2.722901,-2.800848 4.017383,-5.448114 0.0102,1.281193 0.0294,2.536983 -0.159903,3.810682 -0.530024,3.571644 -2.730412,6.72873 -5.219475,9.256485 -2.337214,2.374158 -5.363829,4.598794 -8.391005,6.009903 -1.392055,0.64897 -2.6386,1.00001 -4.093019,1.72057 -1.730977,0.85799 -3.171529,1.8274 -4.813583,2.7079 -3.488498,1.88225 -7.386371,2.87821 -11.350057,2.90131 -0.756352,0.007 -1.98847,-0.0503 -2.734439,-0.16976 1.209025,-0.54331 1.727511,-0.71594 2.452103,-1.89438 -1.159949,0.23962 -2.312966,0.57276 -3.470026,0.83374 -4.991414,1.12587 -10.34131,0.72114 -14.093791,-3.1057 1.964578,0.39204 4.755604,0.70151 6.625668,-0.3984 0.139001,-0.0819 0.215078,-0.18418 0.28898,-0.32332 0.0277,-1.68479 -7.420441,-1.2044 -8.826005,-1.59876 -1.385343,-0.38857 -2.739759,-0.71652 -4.048497,-1.357983 -2.685144,-1.192864 -4.711321,-2.915753 -6.419545,-5.292799 -0.636672,-0.88628 -1.368622,-1.837217 -2.100793,-2.659399 -0.671711,-0.754636 -1.487826,-1.136279 -2.200439,-1.716534 3.117611,0.06746 5.187205,1.904186 8.223217,2.228087 0.76648,0.08208 1.713492,0.05319 2.313442,-0.48326 C 39.042321,78.483977 35.536032,77.422756 34.675802,76.98626 33.610146,76.442384 32.61705,75.76685 31.719759,74.975849 29.387625,72.936553 29.040223,71.443459 27.350012,69.173213 26.531177,68.066384 25.53509,67.102175 24.402091,66.319824 20.469366,63.555341 17.698069,64.235497 13.360999,63.620593 11.656072,63.369439 10.002803,62.845175 8.465136,62.066868 7.1953107,61.428871 5.9947143,60.545481 5.1694732,59.375149 c 2.9720508,1.39321 5.2306908,1.304864 8.4539978,1.161682 1.052622,-0.04673 1.872137,-0.08021 2.934394,-0.185341 -0.384463,-0.283492 -0.694804,-0.506931 -1.109429,-0.745969 -0.264086,-0.151916 -0.704167,-0.280026 -0.854503,-0.479216 0.116061,-0.181297 0.657284,-0.320451 0.880774,-0.359127 4.02102,-0.69285 7.192787,1.726339 11.275067,0.784068 -0.205206,-0.232106 -0.413114,-0.427252 -0.602788,-0.670912 -0.489496,-0.628175 -0.898277,-1.311798 -1.486688,-1.856266 -1.868552,-1.72865 -4.318531,-2.397828 -6.76049,-2.831452 -0.771492,-0.136793 -1.61376,-0.292719 -2.39132,-0.33775 -0.09924,-0.0051 -0.198442,-0.0102 -0.297697,-0.01359 4.686052,-1.529935 8.978312,-1.68802 13.492634,0.325634 0.907231,0.404753 1.957424,0.657063 2.855938,1.105096 0.801281,0.374149 1.380738,0.868386 2.290162,1.138012 0.926858,0.274842 1.704009,0.278292 2.641896,0.400131 2.673487,0.346416 4.328183,1.310642 6.198128,3.181335 0.422239,0.427251 0.823168,0.874724 1.201344,1.341246 0.503481,0.611437 1.928214,2.625328 2.750226,2.647844 0.95075,-0.342389 0.331922,-2.363775 0.09652,-3.042197 -0.7536,-2.173812 -2.458646,-3.143815 -4.347062,-4.141517 3.649063,0.43534 6.150547,2.177873 8.867162,4.50931 1.427841,1.225185 2.258112,2.479258 3.031797,4.178459 -0.078,-1.795636 0.125238,-2.252336 -0.389153,-4.162877 3.089539,2.214238 3.618986,5.363252 3.986201,8.917002 0.215368,2.087216 0.868369,4.091286 3.42904,3.587227 3.517369,-0.691695 1.983287,-5.609784 0.746547,-7.558423 2.02543,0.694005 3.486765,1.977509 4.426164,3.908833 0.557162,1.1461 0.905906,2.776599 1.922657,3.591287 0.390886,0.313501 1.169771,-1.360312 1.296793,-1.639182 0.24191,-0.640308 0.573322,-1.595289 0.362576,-2.264468 -1.489628,-4.7033 -6.538766,-6.575148 -10.731669,-8.161211 -1.979821,-0.77829 -3.901339,-1.687085 -5.929658,-2.336059 -1.719422,-0.550229 -3.697051,-1.241345 -5.238694,-2.19286 -0.874333,-0.50637 -1.278321,-1.399566 -2.41268,-1.871865 -2.423606,-1.009257 -4.622821,-0.922067 -7.145904,-1.072182 -5.171028,-0.30774 -9.577786,-2.795937 -13.738011,-5.691655 2.835887,0.337988 5.239798,0.791527 8.136485,1.026742 -1.14141,-1.137366 -2.573653,-3.030693 -3.041211,-4.532454 -0.640308,-2.20586 -1.324899,-4.141516 -3.665359,-5.042681 -2.657139,-1.023106 -5.307634,-0.656247 -8.063111,-1.764811 1.129244,-0.28881 2.375619,-0.357104 3.502483,-0.624317 4.500881,-1.067389 9.409607,-1.425939 13.155734,1.834617 1.399277,1.168378 6.039584,5.417629 6.681574,1.453025 0.510687,-3.153687 -2.113147,-4.224373 -4.373282,-5.670347 -3.245652,-2.076476 -3.670134,-5.815686 -4.74082,-9.228379 -1.285476,-4.097572 -5.059147,-3.968478 -8.647427,-4.475001 1.073745,-0.625881 2.843585,-1.131843 4.094413,-1.386464 3.352469,-0.682399 6.354767,0.193838 8.984428,2.341259 1.408267,1.087781 2.797331,3.072054 4.716181,3.201488 2.307766,0.155655 3.12723,-2.146453 3.111239,-4.035616 -0.0209,-2.473243 -0.650707,-4.475698 -2.395823,-6.243805 2.406036,0.516991 4.379519,1.855637 5.789059,3.883208 1.271508,1.82889 2.634216,3.81126 5.110585,2.303314 0.729809,-0.444398 0.954982,-0.931294 1.142056,-1.716534 -0.661685,-3.14497 -4.15924,-3.344568 -5.210996,-5.5707 C 47.286202,10.324687 50.19368,5.417456 44.118258,4.237064 Z"
       id="path2"
       style="display:block;fill:#cccccc;fill-opacity:1;stroke-width:0.0577377" />
    <path
       fill="rgb(208,12,2)"
       d="m 67.980852,40.191657 c 0.726903,1.280853 1.38801,2.564409 2.505223,3.576674 2.955006,2.678618 6.602302,4.444006 9.884677,6.623543 2.202682,1.462593 6.057257,4.741348 6.620196,7.319334 1.629921,-2.433071 -1.370695,-4.671269 2.665738,-7.646361 -0.775996,3.389361 -0.737303,4.190184 1.086047,7.286656 0.394353,0.668601 0.903018,1.3701 1.293904,2.051412 1.714801,2.989655 2.015608,6.705636 1.281194,10.03537 -0.37646,1.706711 -1.133968,3.668639 -1.750604,5.34823 2.209615,-1.937101 2.722901,-2.800848 4.017383,-5.448114 0.0102,1.281193 0.0294,2.536982 -0.159903,3.810682 -0.530024,3.571644 -2.730412,6.72873 -5.219475,9.256485 -2.337214,2.374158 -5.363829,4.598794 -8.391005,6.009902 -1.392055,0.64897 -2.6386,1.00001 -4.093019,1.72057 -1.730977,0.85799 -3.171529,1.8274 -4.813583,2.7079 -3.488498,1.88225 -7.386371,2.87822 -11.350057,2.90131 -0.756352,0.007 -1.98847,-0.0503 -2.734439,-0.16976 1.209025,-0.54331 1.727511,-0.71594 2.452103,-1.89438 -1.159949,0.23962 -2.312966,0.57276 -3.470026,0.83374 -4.991414,1.12588 -10.34131,0.72114 -14.093791,-3.1057 1.964578,0.39204 4.755604,0.70151 6.625668,-0.3984 0.139001,-0.0819 0.215078,-0.18418 0.28898,-0.32332 0.0277,-1.68479 -7.420441,-1.2044 -8.826005,-1.59876 -1.385343,-0.38857 -2.739759,-0.71652 -4.048497,-1.357982 -2.685144,-1.192864 -4.711321,-2.915753 -6.419545,-5.292799 -0.636672,-0.88628 -1.368622,-1.837217 -2.100793,-2.659399 -0.671711,-0.754636 -1.487826,-1.136279 -2.200439,-1.716534 3.117611,0.06746 5.187205,1.904186 8.223217,2.228087 0.76648,0.08208 1.713492,0.05319 2.313442,-0.48326 1.474895,-1.322775 -2.031394,-2.383996 -2.891624,-2.820492 -1.065656,-0.543873 -2.058752,-1.219407 -2.956043,-2.010408 -2.332134,-2.039296 -2.679536,-3.53239 -4.369747,-5.802636 -0.818835,-1.10683 -1.814922,-2.071038 -2.947921,-2.853389 C 20.469383,63.555375 17.698086,64.235531 13.361016,63.620627 11.656089,63.369473 10.00282,62.845209 8.465153,62.066902 7.1953277,61.428905 5.9947313,60.545515 5.1694902,59.375183 c 2.9720508,1.39321 5.2306908,1.304864 8.4539978,1.161682 1.052622,-0.04673 1.872137,-0.08021 2.934394,-0.185341 -0.384463,-0.283492 -0.694803,-0.506931 -1.109429,-0.745969 -0.264086,-0.151916 -0.704167,-0.280026 -0.854503,-0.479216 0.116061,-0.181297 0.657284,-0.320451 0.880774,-0.359127 4.02102,-0.69285 7.192787,1.726339 11.275067,0.784068 -0.205206,-0.232106 -0.413114,-0.427252 -0.602788,-0.670912 -0.489496,-0.628175 -0.898277,-1.311798 -1.486688,-1.856266 -1.868552,-1.72865 -4.318531,-2.397828 -6.76049,-2.831452 -0.771492,-0.136793 -1.61376,-0.292719 -2.391319,-0.33775 -0.09924,-0.0051 -0.198443,-0.0102 -0.297698,-0.01359 4.686052,-1.529935 8.978312,-1.68802 13.492634,0.325634 0.907231,0.404753 1.957424,0.657063 2.855938,1.105096 0.801281,0.374149 1.380738,0.868386 2.290162,1.138012 0.926858,0.274842 1.704009,0.278292 2.641896,0.400131 2.673487,0.346416 4.328183,1.310642 6.198128,3.181335 0.422239,0.427251 0.823168,0.874724 1.201344,1.341246 0.503481,0.611437 1.928214,2.625328 2.750226,2.647844 0.95075,-0.342389 0.331922,-2.363775 0.09652,-3.042197 -0.7536,-2.173812 -2.458646,-3.143815 -4.347062,-4.141517 3.649063,0.43534 6.150547,2.177873 8.867162,4.50931 1.427841,1.225185 2.258112,2.479258 3.031797,4.178459 -0.078,-1.795636 0.125238,-2.252336 -0.389153,-4.162877 3.089539,2.214238 3.618986,5.363252 3.986201,8.917002 0.215368,2.087216 0.868369,4.091286 3.42904,3.587227 3.517369,-0.691695 1.983287,-5.609784 0.746547,-7.558423 2.02543,0.694005 3.486765,1.977509 4.426164,3.908833 0.557162,1.1461 0.905906,2.776599 1.922657,3.591287 0.390886,0.313501 1.169771,-1.360312 1.296793,-1.639182 0.28983,0.06474 1.668036,0.721143 1.831422,0.933044 -0.62182,1.101052 -2.023697,2.497151 -3.402463,2.414005 -1.589529,-0.09584 -2.127642,-0.794467 -3.131699,-1.89263 -1.077959,2.95674 -2.750617,3.625919 -5.651348,2.255224 -3.446933,-1.62936 -2.458459,-5.290488 -3.416907,-8.385805 -0.668601,1.364339 -1.566996,2.838385 -3.037575,1.420925 -0.839498,-0.808911 -0.694006,-1.360295 -0.874147,-2.392645 -0.178408,-1.024839 -0.584877,-2.079705 -1.255789,-2.878794 -0.496378,-0.598743 -0.964973,-0.770796 -1.653898,-1.050261 0.171305,1.47289 -0.112493,2.547961 -1.37253,3.4556 -0.717795,0.134583 -1.18323,-5.78e-4 -1.838491,-0.24191 -1.91117,-0.672646 -2.927292,-2.33261 -4.296423,-3.696372 -1.833513,-1.826817 -4.09307,-3.280641 -6.730463,-3.505252 -0.888132,-0.07732 -1.794208,-0.0814 -2.662339,-0.310035 -1.386227,-0.364327 -2.709579,-1.055443 -4.030145,-1.623005 1.357066,1.961911 1.964629,2.536983 4.063689,3.571644 1.0775,0.530602 2.713147,1.491939 3.08371,2.700386 -0.11793,0.503464 -0.20111,0.72692 -0.39505,1.211336 -1.54188,0.06406 -1.814871,-0.354505 -3.157442,-0.928422 -0.596195,-0.249421 -1.21849,-0.431296 -1.855162,-0.541579 -1.927618,-0.345278 -2.857076,-0.155315 -4.680325,-0.20439 -1.299495,-0.03518 -3.603692,-0.479811 -4.906585,-0.796201 2.229191,1.937662 4.853245,1.788702 7.359623,3.561822 2.917775,2.064123 3.639955,5.304355 6.517831,7.340762 0.493303,0.348727 1.339683,0.982697 1.852629,1.217691 1.859953,0.847587 3.926846,1.326224 4.941642,3.291041 0.863526,1.67208 -0.607868,4.221773 -2.163208,4.982747 -1.133848,0.555429 -2.680232,-0.01189 -3.820844,-0.442273 1.399039,2.225215 2.655593,3.28528 5.11706,4.2518 1.435471,0.564095 2.235427,0.82276 3.860505,0.921489 1.52341,0.160582 2.592073,-0.224017 4.133088,-0.08717 1.424205,0.126427 7.009638,0.49942 6.805826,2.691138 -0.06355,0.68016 -1.931323,1.61261 -2.64555,2.02543 2.270824,1.10741 5.970067,0.3343 8.260517,-0.4925 1.265611,-0.4567 2.360886,-1.33085 3.826859,-1.04735 1.830267,0.35334 -0.321606,1.99655 -1.008679,2.36608 2.709036,0.104 6.530118,-1.02657 8.804391,-2.44981 2.536422,-1.5872 3.822237,-1.963065 6.772044,-2.596456 2.980989,-0.640886 6.410029,-2.70788 8.429698,-4.978704 0.517331,-0.750014 0.871836,-1.44113 1.46769,-2.147268 0.780023,-0.924378 1.913413,-1.662836 2.529472,-2.680182 -0.800822,0.309474 -1.456713,0.455562 -2.24253,0.03755 -0.255777,-0.736148 -0.245955,-1.177266 -0.298497,-1.92208 -0.144269,-2.052006 0.538113,-3.072801 1.576818,-4.730437 0.446301,-0.712494 0.856814,-1.836639 1.018484,-2.688848 0.702672,-3.703288 -0.173208,-7.473544 -2.233286,-10.580994 -0.0277,1.201531 -0.217101,3.47696 -0.758102,4.564163 -0.276559,0.554851 -1.506366,1.816995 -2.072772,1.985021 -0.509242,-0.303697 -0.744236,-4.323969 -1.187087,-5.333804 -1.47634,-3.363787 -4.104557,-6.009846 -7.212007,-7.91218 -1.015017,-0.621718 -2.098176,-1.102564 -3.138615,-1.677229 -1.095274,-0.571708 -2.383979,-1.308909 -3.491964,-1.790197 0.0012,1.218133 0.180141,1.481012 -1.229229,1.283215 -0.474611,-0.06661 -1.836639,-0.609721 -2.127047,-0.882473 -1.339513,-1.259477 -4.38691,-3.511642 -5.386923,-4.933026 l 0.03874,-0.107395 c -0.113682,-0.14342 -0.14376,-0.170914 -0.273687,-0.290136 l 0.02073,-0.04707 c 0.244238,0.130336 0.749436,0.527204 0.852209,0.565132 0.485571,0.179224 0.931888,0.280671 1.438241,0.498689 l 0.115552,-0.03449 0.01359,-0.114192 c -0.20439,-0.139342 -0.489037,-0.197814 -0.534068,-0.303238 0.187652,-0.113682 0.394931,-0.230899 0.608548,-0.18303 0.368371,0.403241 0.627614,0.87345 1.113763,1.109141 l 0.101107,-0.02328 c 1.143212,0.799956 2.337793,1.563309 3.625341,2.116205 -0.944582,-2.146979 -1.246545,-3.509535 -1.735582,-5.785371 z"
       id="path3"
       style="display:block;fill:#666666;fill-opacity:1;stroke-width:0.0577377" />
    <path
       fill="rgb(208,12,2)"
       d="m 44.118258,4.237421 c 0.912193,-0.09805 2.16353,-0.16704 3.045239,-0.0435 2.037103,0.285633 3.966065,1.685079 5.089632,3.37835 0.674379,0.984413 1.373584,2.254765 2.38629,2.945763 2.026602,1.383048 4.744882,1.405394 6.780711,2.946816 0.822183,0.622635 1.730961,1.294585 2.284673,2.175443 1.092386,1.737027 2.244264,3.492542 4.603994,3.074178 1.086625,-0.188858 1.150127,-0.901811 1.321041,-1.853955 0.214773,-1.195464 0.08021,-2.435263 -0.151916,-3.611441 -0.580272,-2.944437 -2.46252,-5.398563 -4.960249,-7.00709 0.94691,0.145119 1.893225,0.318956 2.81587,0.659374 4.364377,1.610702 8.825767,5.298118 9.438359,10.165502 0.189964,1.9397 0.122349,4.098507 1.615494,5.575084 0.567562,0.555446 1.806613,0.713921 2.292762,-0.02056 0.253465,-0.383325 -0.01852,-1.671723 -0.116061,-2.100606 -0.219412,-0.964787 -0.387998,-1.797997 -0.353945,-2.788783 0.06525,-1.90857 0.907062,-3.266843 1.933057,-4.78575 -0.026,0.924667 -0.07154,1.861449 0.109774,2.767067 0.481526,2.399867 2.378779,3.492559 4.030077,5.032876 0.855675,0.798631 1.747715,1.893667 2.289872,2.93815 1.475779,2.844095 1.659965,5.661867 0.730387,8.681311 0.311207,-0.475239 0.559473,-0.990157 0.894929,-1.500078 0.4723,1.615086 0.711321,4.541868 0.225172,6.159843 -0.767329,2.553448 -2.419205,6.372321 -4.297986,8.207805 -0.490193,-0.67946 -1.233274,-0.74337 -1.975199,-0.951872 1.244829,-0.554443 2.432494,-2.187559 2.930758,-3.444214 0.465367,-1.174326 0.35855,-2.198298 0.398398,-3.41599 0.0537,-1.645282 -0.695739,-2.981159 -0.695739,-4.589091 0,-0.746904 0.4619,-1.463136 0.751747,-2.127115 0.852192,-1.780171 0.932449,-3.818244 0.127617,-5.642172 -0.292158,-0.65331 -0.674379,-1.262266 -1.136279,-1.808858 -0.754058,-0.892805 -3.260436,-2.990811 -4.284137,-3.578118 0.541002,1.735702 0.781773,3.199177 5.78e-4,5.006708 -0.132884,0.307451 -0.628175,0.906824 -0.989613,0.980963 -1.061221,0.217322 -1.815279,0.270799 -2.769683,-0.314775 -0.976919,-0.59944 -2.372424,-2.221409 -2.656494,-3.294219 -0.186496,-0.701686 -0.162281,-2.280985 -0.207278,-3.074008 -0.146649,-2.56638 -0.910529,-4.483276 -2.768528,-6.286525 -0.500575,-0.485571 -1.092963,-0.922933 -1.57449,-1.396218 0.489615,1.07993 0.722859,2.24547 1.065248,3.365521 0.356239,1.166645 0.655908,2.198536 0.158204,3.371825 -1.181887,2.785775 -3.545662,4.308318 -6.522607,3.209679 -1.245406,-0.459521 -1.623004,-1.229162 -2.169784,-2.365967 -0.558317,-1.144809 -1.381077,-2.518681 -2.360307,-3.342308 -2.13918,-1.799051 -5.405394,-2.08392 -7.74492,-3.466849 -1.646098,-0.973351 -2.33837,-3.202186 -3.840369,-4.460116 0.391583,1.857761 0.249251,4.150285 1.187325,5.82313 0.972875,1.697536 2.817586,2.270178 4.017383,3.828576 1.976932,2.568912 1.363762,6.289702 -2.137446,6.989655 -2.421007,0.483957 -4.118491,-0.638982 -5.738131,-2.385372 -0.64702,1.177316 -0.42958,1.924798 -0.49592,3.196985 -0.04299,0.825479 -0.110623,1.87127 -0.04962,2.725162 -0.116911,0.2362 -0.749334,0.403988 -0.901522,0.456462 -1.479636,0.510295 -3.724359,1.126983 -5.200545,0.178646 -3.435667,-2.207203 -3.888969,-5.257709 -8.265309,-6.357538 1.37705,2.440854 2.948957,4.632389 3.999609,7.278907 0.656825,1.654714 1.751403,3.217207 3.235151,4.223167 1.525772,0.995221 3.427306,1.820513 4.013509,3.725106 0.240415,0.838122 0.408151,1.920176 0.420845,2.790975 0.01359,0.890137 0.308556,2.639246 0.03517,3.442023 -0.569583,1.673065 -2.126996,2.093231 -3.678002,1.596682 -1.897422,-0.607392 -3.24324,-1.460926 -4.848164,-2.586125 -0.637487,-0.435459 -1.522373,-0.783728 -2.20812,-1.155039 -1.154002,-0.614853 -1.564515,-0.658847 -2.840101,-0.590366 1.363235,1.342912 3.570998,1.838933 3.337975,4.191747 -0.260518,2.63058 2.798027,4.222352 4.890544,4.948983 0.310171,0.107735 0.749266,0.126767 0.99811,0.396358 l -0.03603,0.08089 c -0.455035,0.154635 -1.290896,0.188927 -1.808805,0.292685 -0.82016,0.164321 -1.636463,0.426266 -2.456623,0.530551 1.804471,0.778698 4.520457,0.843594 6.468399,0.660343 1.988028,-0.187074 3.435446,-0.447014 5.457647,0.04197 2.177516,0.43014 1.936166,2.969383 3.785278,4.020782 1.21538,0.691117 2.189411,0.724032 3.517946,0.996546 0.681312,0.140361 2.474058,0.781774 2.908243,1.31642 -2.812386,-0.657046 -6.161168,-1.067576 -9.080677,-1.224029 0,0 -0.198494,0.11776 -0.220432,0.130505 -0.874333,-0.50637 -1.278321,-1.399566 -2.41268,-1.871866 -2.423606,-1.009256 -4.622821,-0.922066 -7.145904,-1.072181 -5.171028,-0.307741 -9.577786,-2.795937 -13.738011,-5.691656 2.835887,0.337988 5.239798,0.791528 8.136485,1.026743 -1.14141,-1.137366 -2.573653,-3.030693 -3.041211,-4.532454 -0.640308,-2.20586 -1.324899,-4.141516 -3.665359,-5.042681 -2.657139,-1.023106 -5.307634,-0.656248 -8.063111,-1.764811 1.129244,-0.28881 2.375619,-0.357105 3.502483,-0.624317 4.500881,-1.06739 9.409607,-1.425939 13.155734,1.834617 1.399277,1.168378 6.039584,5.417628 6.681574,1.453025 0.510687,-3.153688 -2.113147,-4.224374 -4.373282,-5.670347 -3.245652,-2.076476 -3.670134,-5.815686 -4.74082,-9.228379 -1.285476,-4.097573 -5.059147,-3.968478 -8.647426,-4.475001 1.073744,-0.625881 2.843584,-1.131843 4.094412,-1.386464 3.352469,-0.682399 6.354767,0.193837 8.984429,2.341259 1.408266,1.087781 2.79733,3.072053 4.71618,3.201488 2.307766,0.155655 3.12723,-2.146453 3.111239,-4.035617 -0.0209,-2.473242 -0.650707,-4.475697 -2.395822,-6.243804 2.406035,0.51699 4.379518,1.855637 5.789058,3.883208 1.271508,1.82889 2.634216,3.81126 5.110585,2.303313 0.729809,-0.444397 0.954982,-0.931293 1.142056,-1.716533 -0.661685,-3.14497 -4.15924,-3.344568 -5.210996,-5.570701 -1.873751,-3.966048 1.033727,-8.87328 -5.041695,-10.053672 z"
       id="path4"
       style="display:block;fill:#666666;fill-opacity:1;stroke-width:0.0577377" />
    <path
       fill="rgb(122,19,17)"
       d="m 62.595662,42.790663 c -0.244221,-0.256762 -0.730387,-0.756199 -0.911106,-1.041135 -0.554273,-0.872872 -0.758663,-2.636408 -0.760974,-3.654501 -0.0034,-1.674561 1.127034,-2.846864 2.300272,-3.937007 1.511566,-1.409829 3.429023,-1.862383 5.457919,-1.777504 2.913442,0.121839 5.564175,2.166946 7.543418,4.160854 0.565251,0.569295 1.980399,2.655406 1.460757,3.442668 -0.864324,0.472283 -3.444622,-2.347155 -4.490243,-2.523014 0.0034,6.28e-4 -0.190541,-0.07919 -0.195146,-0.08106 3.720603,3.964824 4.181925,9.274548 11.149693,6.90136 0.741925,0.208502 1.485006,0.272412 1.975199,0.951872 -1.159932,1.055256 -2.642644,1.727443 -4.218307,1.676515 -4.218885,-0.136283 -6.548011,-1.804064 -8.470668,-5.541592 -0.43534,-0.847247 -1.243673,-2.508927 -1.888025,-3.098664 -1.545059,-1.414452 -3.9123,-1.717689 -5.889232,-1.696159 -1.699217,1.60523 -1.894363,4.513405 -0.504042,6.400852 0.179564,0.243083 0.693428,0.66335 0.935916,0.88662 l -0.101108,0.02328 c -0.486148,-0.235691 -0.745391,-0.7059 -1.113763,-1.109141 -0.213617,-0.04792 -0.420896,0.06933 -0.608548,0.18303 0.04503,0.105356 0.329679,0.163811 0.534069,0.303238 l -0.01359,0.114192 -0.115552,0.03449 c -0.506353,-0.218018 -0.95267,-0.319466 -1.438241,-0.498689 -0.102807,-0.03789 -0.607971,-0.434762 -0.852209,-0.565132 l -0.02073,0.04707 c 0.129825,0.119289 0.159902,0.146648 0.273686,0.290136 z"
       id="path5-3"
       style="display:block;fill:#666666;fill-opacity:1;stroke-width:0.0577377" />
    <path
       fill="rgb(122,19,17)"
       d="m 48.17034,57.174251 c 0.02192,-0.01189 0.220432,-0.130505 0.220432,-0.130505 2.919509,0.156504 6.268291,0.566983 9.080677,1.224029 1.315842,0.288114 3.030064,0.933044 4.327435,1.413993 1.449219,0.568717 3.028909,1.046777 4.431941,1.721733 2.291028,1.101052 4.871886,2.769666 6.329194,4.867281 1.389744,2.000026 0.133394,4.968321 -1.020812,6.791094 -0.163471,-0.211901 -1.541592,-0.868369 -1.831422,-0.933044 0.24191,-0.640308 0.573322,-1.595289 0.362576,-2.264468 -1.489628,-4.7033 -6.538766,-6.575149 -10.731669,-8.161211 -1.979821,-0.77829 -3.901339,-1.687085 -5.929658,-2.336059 -1.719422,-0.550229 -3.697051,-1.241345 -5.238694,-2.19286 z"
       id="path6-6"
       style="display:block;fill:#666666;fill-opacity:1;stroke-width:0.0577377" />
    <path
       fill="rgb(208,12,2)"
       d="m 21.173737,27.253006 c 2.01712,-0.03161 4.208145,0.48309 5.458922,2.21383 0.458603,0.643723 0.808027,1.431206 1.426584,1.941553 0.537874,0.443819 1.142446,0.68245 1.773748,0.954913 0.692272,0.298735 1.371035,0.626408 2.036356,0.984838 -0.693546,0.07086 -1.48854,0.05557 -2.195477,0.122179 -3.296189,0.310341 -4.732578,0.258427 -7.517725,-1.548457 -1.991427,-1.111401 -3.871075,-1.488133 -6.132246,-1.507827 -2.485426,-0.02158 -4.287366,0.206412 -6.3942085,-1.350474 1.4177485,0.111813 3.0516625,0.190184 4.4314145,-0.163301 2.583985,-0.662025 4.371192,-1.509102 7.112632,-1.647152 z"
       id="path27"
       style="display:block;fill:#666666;fill-opacity:1;stroke-width:0.0577377" />
    <path
       fill="rgb(249,62,0)"
       d="m 21.457688,28.928213 c 0.751169,-0.01699 2.154083,0.07766 2.73342,0.589737 0.723862,0.639781 1.561168,1.330728 2.266371,1.995981 0.444228,0.418942 0.722248,0.835284 1.238644,1.221379 -0.88961,-0.01835 -1.323234,0.03619 -2.16037,-0.286381 -0.54158,-0.245903 -1.301279,-0.58644 -1.782636,-0.914215 -1.782653,-1.213868 -2.896246,-1.783282 -5.010412,-2.228835 0.858258,-0.240652 1.827106,-0.309474 2.714983,-0.377666 z"
       id="path28"
       style="display:block;fill:#cccccc;fill-opacity:1;stroke-width:0.0577377" />
    <path
       fill="rgb(208,12,2)"
       d="m 11.68151,70.327436 c 0.632984,0.101617 2.403147,0.905329 3.169338,1.118963 1.841414,0.576788 4.028174,-0.05489 5.878832,-0.14257 2.59328,-0.123538 4.384888,0.775418 5.755396,2.95329 0.196029,0.311768 0.807585,0.867214 1.101868,1.136262 0.06185,0.05081 0.05659,0.05998 0.101617,0.131015 -0.165341,0.02481 -1.563258,-0.477483 -1.89241,-0.56294 -0.355728,-0.09414 -0.717676,-0.162281 -1.083107,-0.204967 -1.212781,-0.140871 -2.137668,0.0017 -3.31857,0.04265 -0.824561,0.02141 -1.649462,-0.02481 -2.466615,-0.137473 C 15.83052,74.234978 13.557233,72.812913 11.681561,70.3273 Z"
       id="path30"
       style="display:block;fill:#666666;fill-opacity:1;stroke-width:0.0577377" />
    <path
       fill="rgb(208,12,2)"
       d="m 12.883602,45.036524 c 3.618765,-0.124387 6.266847,0.723064 9.073404,2.997116 -1.616938,-0.412077 -3.194623,-0.834146 -4.878768,-0.867401 -1.214225,-0.02396 -2.642067,0.116231 -3.870837,0.202249 -2.585498,0.217509 -7.6008035,0.07392 -9.8346166,-1.265832 3.5916783,0.052 5.9820126,-0.918141 9.5108176,-1.066132 z"
       id="path32"
       style="display:block;fill:#666666;fill-opacity:1;stroke-width:0.0577377" />
  </g>
</svg>
